<svg height="1482" width="1052" xmlns="http://www.w3.org/2000/svg">
 <!-- Created with Image Occlusion Enhanced -->
 <g>
  <title>Labels</title>
 </g>
 <g>
  <title>Masks</title>
  <rect fill="#FFEBA2" height="31.43382" id="02f3d5cd920e4e82a5fe6512d3e775cd-oa-1" stroke="#2D2D2D" width="87.68382" x="127.5956" y="170.75731"/>
  <rect fill="#FFEBA2" height="39.70588" id="02f3d5cd920e4e82a5fe6512d3e775cd-oa-2" stroke="#2D2D2D" width="87.68382" x="231.82354" y="160.83084"/>
  <rect fill="#FFEBA2" height="14.88971" id="02f3d5cd920e4e82a5fe6512d3e775cd-oa-3" stroke="#2D2D2D" width="47.97794" x="71.3456" y="379.21319"/>
  <rect fill="#FFEBA2" height="38.05147" id="02f3d5cd920e4e82a5fe6512d3e775cd-oa-4" stroke="#2D2D2D" width="125.7353" x="152.41178" y="420.57349"/>
  <rect fill="#FFEBA2" height="59.55882" id="02f3d5cd920e4e82a5fe6512d3e775cd-oa-5" stroke="#2D2D2D" width="127.38971" x="341.01472" y="400.72055"/>
  <rect fill="#FFEBA2" height="33.08824" id="02f3d5cd920e4e82a5fe6512d3e775cd-oa-6" stroke="#2D2D2D" width="173.71324" x="283.11031" y="602.55878"/>
  <rect fill="#FFEBA2" height="57.90441" id="02f3d5cd920e4e82a5fe6512d3e775cd-oa-7" stroke="#2D2D2D" width="59.55882" x="238.44119" y="475.16908"/>
  <rect fill="#FFEBA2" height="66.17647" id="02f3d5cd920e4e82a5fe6512d3e775cd-oa-8" stroke="#2D2D2D" width="74.44853" x="339.36031" y="685.27937"/>
  <rect fill="#FFEBA2" height="29.77941" id="02f3d5cd920e4e82a5fe6512d3e775cd-oa-9" stroke="#2D2D2D" width="94.30147" x="314.54413" y="791.16173"/>
  <rect fill="#FFEBA2" height="31.43382" id="02f3d5cd920e4e82a5fe6512d3e775cd-oa-10" stroke="#2D2D2D" width="140.625" x="74.65442" y="700.16908"/>
  <rect fill="#FFEBA2" height="44.66912" id="02f3d5cd920e4e82a5fe6512d3e775cd-oa-11" stroke="#2D2D2D" width="105.88235" x="493.2206" y="787.8529"/>
  <rect fill="#7fff00" height="31.43382" id="02f3d5cd920e4e82a5fe6512d3e775cd-oa-12" stroke="#2D2D2D" width="13.23529" x="617.30149" y="723.33084"/>
  <rect fill="#7fff00" height="64.52206" id="02f3d5cd920e4e82a5fe6512d3e775cd-oa-13" stroke="#2D2D2D" width="24.81618" x="749.65443" y="852.37496"/>
  <rect fill="#7fff00" height="26.47059" id="02f3d5cd920e4e82a5fe6512d3e775cd-oa-14" stroke="#2D2D2D" width="28.125" x="384.02943" y="625.72055"/>
  <rect fill="#7fff00" height="19.85294" id="02f3d5cd920e4e82a5fe6512d3e775cd-oa-15" stroke="#2D2D2D" width="59.55882" x="486.60296" y="880.49996"/>
  <rect fill="#7fff00" height="41.36029" id="02f3d5cd920e4e82a5fe6512d3e775cd-oa-16" stroke="#2D2D2D" width="158.82353" x="226.86031" y="878.84555"/>
  <rect fill="#7fff00" height="43.01471" id="02f3d5cd920e4e82a5fe6512d3e775cd-oa-17" stroke="#2D2D2D" width="115.80882" x="182.19119" y="925.16908"/>
  <rect fill="#7fff00" height="49.63235" id="02f3d5cd920e4e82a5fe6512d3e775cd-oa-18" stroke="#2D2D2D" width="109.19118" x="527.96325" y="945.02202"/>
  <rect fill="#7fff00" height="31.43382" id="02f3d5cd920e4e82a5fe6512d3e775cd-oa-19" stroke="#2D2D2D" width="84.375" x="534.5809" y="997.9632"/>
  <rect fill="#7fff00" height="107.53677" id="02f3d5cd920e4e82a5fe6512d3e775cd-oa-20" stroke="#2D2D2D" width="99.26471" x="496.52943" y="1107.15438"/>
  <rect fill="#7fff00" height="19.85294" id="02f3d5cd920e4e82a5fe6512d3e775cd-oa-21" stroke="#2D2D2D" width="120.77206" x="589.17649" y="1216.34555"/>
  <rect fill="#7fff00" height="59.55882" id="02f3d5cd920e4e82a5fe6512d3e775cd-oa-22" stroke="#2D2D2D" width="59.55882" x="625.57355" y="1067.44849"/>
  <rect fill="#7fff00" height="90.99265" id="02f3d5cd920e4e82a5fe6512d3e775cd-oa-23" stroke="#2D2D2D" width="52.94118" x="658.66178" y="956.6029"/>
  <rect fill="#7fff00" height="38.05147" id="02f3d5cd920e4e82a5fe6512d3e775cd-oa-24" stroke="#2D2D2D" width="76.10294" x="354.25001" y="930.13232"/>
  <rect fill="#7fff00" height="24.81618" id="02f3d5cd920e4e82a5fe6512d3e775cd-oa-25" stroke="#2D2D2D" width="71.13971" x="367.48531" y="1174.98526"/>
  <rect fill="#7fff00" height="19.85294" id="02f3d5cd920e4e82a5fe6512d3e775cd-oa-26" stroke="#2D2D2D" width="87.68382" x="498.18384" y="1317.26467"/>
  <rect fill="#7fff00" height="34.74265" id="02f3d5cd920e4e82a5fe6512d3e775cd-oa-27" stroke="#2D2D2D" width="84.375" x="168.95589" y="1272.59556"/>
 </g>
</svg>