<svg height="550" width="842" xmlns="http://www.w3.org/2000/svg">
 <!-- Created with Image Occlusion Enhanced -->
 <g>
  <title>Labels</title>
 </g>
 <g>
  <title>Masks</title>
  <rect fill="#FFEBA2" height="17.77778" id="0eaff559ead241ee87fd9f0b2911a75a-oa-1" stroke="#2D2D2D" width="127.77778" x="103.55557" y="57.77777"/>
  <rect fill="#FFEBA2" height="24.44444" id="0eaff559ead241ee87fd9f0b2911a75a-oa-2" stroke="#2D2D2D" width="161.11111" x="75.77779" y="83.33333"/>
  <rect fill="#FFEBA2" height="17.77778" id="0eaff559ead241ee87fd9f0b2911a75a-oa-3" stroke="#2D2D2D" width="145.55556" x="79.11113" y="115.55555"/>
  <rect fill="#FFEBA2" height="24.44444" id="0eaff559ead241ee87fd9f0b2911a75a-oa-4" stroke="#2D2D2D" width="112.22222" x="118.00002" y="143.33333"/>
  <rect fill="#FFEBA2" height="16.66667" id="0eaff559ead241ee87fd9f0b2911a75a-oa-5" stroke="#2D2D2D" width="72.22222" x="159.11113" y="176.66667"/>
  <rect fill="#FFEBA2" height="36.66667" id="0eaff559ead241ee87fd9f0b2911a75a-oa-6" stroke="#2D2D2D" width="96.66667" x="132.44446" y="206.66667"/>
  <rect fill="#FFEBA2" height="23.33333" id="0eaff559ead241ee87fd9f0b2911a75a-oa-7" stroke="#2D2D2D" width="84.44445" x="142.44446" y="247.77778"/>
  <rect fill="#FFEBA2" height="24.44444" id="0eaff559ead241ee87fd9f0b2911a75a-oa-8" stroke="#2D2D2D" width="145.55556" x="78.00001" y="278.88889"/>
  <rect fill="#FFEBA2" height="25.55556" id="0eaff559ead241ee87fd9f0b2911a75a-oa-9" stroke="#2D2D2D" width="72.22222" x="162.44446" y="316.66667"/>
  <rect fill="#FFEBA2" height="25.55556" id="0eaff559ead241ee87fd9f0b2911a75a-oa-10" stroke="#2D2D2D" width="140" x="73.55557" y="332.22222"/>
  <rect fill="#FFEBA2" height="18.88889" id="0eaff559ead241ee87fd9f0b2911a75a-oa-11" stroke="#2D2D2D" width="82.22222" x="50.22224" y="430"/>
  <rect fill="#FFEBA2" height="24.44444" id="0eaff559ead241ee87fd9f0b2911a75a-oa-12" stroke="#2D2D2D" width="177.77778" x="35.77779" y="460"/>
  <rect fill="#FFEBA2" height="26.66667" id="0eaff559ead241ee87fd9f0b2911a75a-oa-13" stroke="#2D2D2D" width="85.55556" x="209.11113" y="512.22223"/>
  <rect fill="#FFEBA2" height="24.44444" id="0eaff559ead241ee87fd9f0b2911a75a-oa-14" stroke="#2D2D2D" width="78.88889" x="621.33336" y="514.44445"/>
  <rect fill="#FFEBA2" height="37.77778" id="0eaff559ead241ee87fd9f0b2911a75a-oa-15" stroke="#2D2D2D" width="120" x="640.22225" y="465.55556"/>
  <rect fill="#FFEBA2" height="37.77778" id="0eaff559ead241ee87fd9f0b2911a75a-oa-16" stroke="#2D2D2D" width="168.88889" x="663.55558" y="385.55556"/>
  <rect fill="#FFEBA2" height="44.44445" id="0eaff559ead241ee87fd9f0b2911a75a-oa-17" stroke="#2D2D2D" width="171.11111" x="608.00002" y="322.22222"/>
  <rect fill="#FFEBA2" height="58.88889" id="0eaff559ead241ee87fd9f0b2911a75a-oa-18" stroke="#2D2D2D" width="182.22223" x="588.00002" y="261.11111"/>
  <rect fill="#FFEBA2" height="32.22222" id="0eaff559ead241ee87fd9f0b2911a75a-oa-19" stroke="#2D2D2D" width="161.11111" x="601.33336" y="234.44444"/>
  <rect fill="#FFEBA2" height="53.33333" id="0eaff559ead241ee87fd9f0b2911a75a-oa-20" stroke="#2D2D2D" width="127.77778" x="590.22225" y="168.88889"/>
  <rect fill="#FFEBA2" height="40" id="0eaff559ead241ee87fd9f0b2911a75a-oa-21" stroke="#2D2D2D" width="131.11111" x="610.22225" y="116.66666"/>
  <rect fill="#FFEBA2" height="43.33333" id="0eaff559ead241ee87fd9f0b2911a75a-oa-22" stroke="#2D2D2D" width="107.77778" x="612.44447" y="64.44444"/>
  <rect fill="#FFEBA2" height="25.55556" id="0eaff559ead241ee87fd9f0b2911a75a-oa-23" stroke="#2D2D2D" width="153.33334" x="603.55558" y="35.55555"/>
 </g>
</svg>