<svg height="479" width="638" xmlns="http://www.w3.org/2000/svg">
 <!-- Created with Image Occlusion Enhanced -->
 <g>
  <title>Labels</title>
 </g>
 <g>
  <title>Masks</title>
  <rect fill="#FFEBA2" height="24.03846" id="1070a7a52de0430fadecfe78dcf63928-oa-1" stroke="#2D2D2D" width="106.73077" x="40.84613" y="148.88461"/>
  <rect fill="#FFEBA2" height="18.26923" id="1070a7a52de0430fadecfe78dcf63928-oa-2" stroke="#2D2D2D" width="114.42308" x="39.88459" y="181.57692"/>
  <rect fill="#FFEBA2" height="24.03846" id="1070a7a52de0430fadecfe78dcf63928-oa-3" stroke="#2D2D2D" width="159.61538" x="2.38459" y="198.88461"/>
  <rect fill="#FFEBA2" height="28.84615" id="1070a7a52de0430fadecfe78dcf63928-oa-4" stroke="#2D2D2D" width="168.26923" x="1.42305" y="222.92307"/>
  <rect fill="#FFEBA2" height="17.30769" id="1070a7a52de0430fadecfe78dcf63928-oa-5" stroke="#2D2D2D" width="69.23077" x="96.61536" y="266.1923"/>
  <rect fill="#FFEBA2" height="14.42308" id="1070a7a52de0430fadecfe78dcf63928-oa-6" stroke="#2D2D2D" width="72.11538" x="82.19228" y="288.30769"/>
  <rect fill="#FFEBA2" height="16.34615" id="1070a7a52de0430fadecfe78dcf63928-oa-7" stroke="#2D2D2D" width="138.46154" x="23.53844" y="306.57692"/>
  <rect fill="#FFEBA2" height="24.03846" id="1070a7a52de0430fadecfe78dcf63928-oa-8" stroke="#2D2D2D" width="77.88461" x="84.11536" y="321.96153"/>
  <rect fill="#FFEBA2" height="21.15385" id="1070a7a52de0430fadecfe78dcf63928-oa-9" stroke="#2D2D2D" width="143.26923" x="28.34613" y="346.96153"/>
  <rect fill="#FFEBA2" height="25" id="1070a7a52de0430fadecfe78dcf63928-oa-10" stroke="#2D2D2D" width="150" x="5.2692" y="369.07692"/>
  <rect fill="#FFEBA2" height="25" id="1070a7a52de0430fadecfe78dcf63928-oa-11" stroke="#2D2D2D" width="135.57692" x="30.2692" y="400.80769"/>
  <rect fill="#FFEBA2" height="22.11538" id="1070a7a52de0430fadecfe78dcf63928-oa-12" stroke="#2D2D2D" width="97.11538" x="475.46151" y="366.1923"/>
  <rect fill="#FFEBA2" height="21.15385" id="1070a7a52de0430fadecfe78dcf63928-oa-13" stroke="#2D2D2D" width="79.80769" x="470.65382" y="336.38461"/>
  <rect fill="#FFEBA2" height="31.73077" id="1070a7a52de0430fadecfe78dcf63928-oa-14" stroke="#2D2D2D" width="162.5" x="461.03843" y="305.61538"/>
  <rect fill="#FFEBA2" height="28.84615" id="1070a7a52de0430fadecfe78dcf63928-oa-15" stroke="#2D2D2D" width="89.42308" x="463.92305" y="277.73076"/>
  <rect fill="#FFEBA2" height="37.5" id="1070a7a52de0430fadecfe78dcf63928-oa-16" stroke="#2D2D2D" width="153.84615" x="458.15382" y="226.76923"/>
  <rect fill="#FFEBA2" height="27.88462" id="1070a7a52de0430fadecfe78dcf63928-oa-17" stroke="#2D2D2D" width="92.30769" x="460.07689" y="180.61538"/>
  <rect fill="#FFEBA2" height="15.38462" id="1070a7a52de0430fadecfe78dcf63928-oa-18" stroke="#2D2D2D" width="74.03846" x="461.99997" y="153.6923"/>
  <rect fill="#FFEBA2" height="37.5" id="1070a7a52de0430fadecfe78dcf63928-oa-19" stroke="#2D2D2D" width="114.42308" x="462.96151" y="94.07692"/>
 </g>
</svg>