<svg height="596" width="636" xmlns="http://www.w3.org/2000/svg">
 <!-- Created with Image Occlusion Enhanced -->
 <g>
  <title>Labels</title>
 </g>
 <g>
  <title>Masks</title>
  <rect fill="#FFEBA2" height="67.46988" id="1789dce27db04de88ba66039be7a201e-oa-1" stroke="#2D2D2D" width="107.22892" x="14.6024" y="5.20483"/>
  <rect fill="#FFEBA2" height="43.37349" id="1789dce27db04de88ba66039be7a201e-oa-2" stroke="#2D2D2D" width="106.0241" x="17.01203" y="75.08435"/>
  <rect fill="#FFEBA2" height="44.57831" id="1789dce27db04de88ba66039be7a201e-oa-3" stroke="#2D2D2D" width="118.07229" x="3.75902" y="122.0723"/>
  <rect fill="#FFEBA2" height="38.55422" id="1789dce27db04de88ba66039be7a201e-oa-4" stroke="#2D2D2D" width="106.0241" x="10.98794" y="175.08435"/>
  <rect fill="#FFEBA2" height="43.37349" id="1789dce27db04de88ba66039be7a201e-oa-5" stroke="#2D2D2D" width="90.36145" x="31.46987" y="222.0723"/>
  <rect fill="#FFEBA2" height="40.96386" id="1789dce27db04de88ba66039be7a201e-oa-6" stroke="#2D2D2D" width="98.79518" x="17.01203" y="269.06025"/>
  <rect fill="#FFEBA2" height="45.78313" id="1789dce27db04de88ba66039be7a201e-oa-7" stroke="#2D2D2D" width="134.93976" x="31.46987" y="485.92773"/>
  <rect fill="#FFEBA2" height="14.45783" id="1789dce27db04de88ba66039be7a201e-oa-8" stroke="#2D2D2D" width="84.33735" x="26.65059" y="471.4699"/>
  <rect fill="#FFEBA2" height="9.63855" id="1789dce27db04de88ba66039be7a201e-oa-9" stroke="#2D2D2D" width="103.61446" x="106.16866" y="542.55423"/>
  <rect fill="#FFEBA2" height="33.73494" id="1789dce27db04de88ba66039be7a201e-oa-10" stroke="#2D2D2D" width="175.90362" x="307.37348" y="546.16869"/>
  <rect fill="#FFEBA2" height="31.3253" id="1789dce27db04de88ba66039be7a201e-oa-11" stroke="#2D2D2D" width="89.15663" x="373.63855" y="505.20484"/>
  <rect fill="#FFEBA2" height="36.14458" id="1789dce27db04de88ba66039be7a201e-oa-12" stroke="#2D2D2D" width="110.84338" x="443.51807" y="460.62652"/>
  <rect fill="#FFEBA2" height="16.86747" id="1789dce27db04de88ba66039be7a201e-oa-13" stroke="#2D2D2D" width="91.56627" x="457.9759" y="300.38556"/>
  <rect fill="#FFEBA2" height="31.3253" id="1789dce27db04de88ba66039be7a201e-oa-14" stroke="#2D2D2D" width="71.08434" x="426.6506" y="257.01206"/>
  <rect fill="#FFEBA2" height="33.73494" id="1789dce27db04de88ba66039be7a201e-oa-15" stroke="#2D2D2D" width="138.55422" x="412.19276" y="223.27712"/>
  <rect fill="#FFEBA2" height="42.16868" id="1789dce27db04de88ba66039be7a201e-oa-16" stroke="#2D2D2D" width="168.6747" x="425.44578" y="181.10845"/>
  <rect fill="#FFEBA2" height="30.12048" id="1789dce27db04de88ba66039be7a201e-oa-17" stroke="#2D2D2D" width="108.43374" x="433.87951" y="147.3735"/>
  <rect fill="#FFEBA2" height="27.71084" id="1789dce27db04de88ba66039be7a201e-oa-18" stroke="#2D2D2D" width="118.07229" x="459.18072" y="105.20483"/>
  <rect fill="#FFEBA2" height="26.50602" id="1789dce27db04de88ba66039be7a201e-oa-19" stroke="#2D2D2D" width="80.72289" x="460.38554" y="75.08435"/>
  <rect fill="#FFEBA2" height="37.3494" id="1789dce27db04de88ba66039be7a201e-oa-20" stroke="#2D2D2D" width="85.54217" x="461.59035" y="30.50603"/>
  <rect fill="#FFEBA2" height="12.04819" id="1789dce27db04de88ba66039be7a201e-oa-21" stroke="#2D2D2D" width="101.20482" x="461.59035" y="6.40965"/>
 </g>
</svg>