<svg height="287" width="578" xmlns="http://www.w3.org/2000/svg">
 <!-- Created with Image Occlusion Enhanced -->
 <g>
  <title>Labels</title>
 </g>
 <g>
  <title>Masks</title>
  <rect fill="#FFEBA2" height="27.36842" id="2b17625b35a9469a9e5ea8eb10793a1b-oa-1" stroke="#2D2D2D" width="73.68421" x="63.05266" y="53.00001"/>
  <rect fill="#FFEBA2" height="22.10526" id="2b17625b35a9469a9e5ea8eb10793a1b-oa-2" stroke="#2D2D2D" width="108.42106" x="289.36846" y="54.05264"/>
  <rect fill="#FFEBA2" height="41.05263" id="2b17625b35a9469a9e5ea8eb10793a1b-oa-3" stroke="#2D2D2D" width="22.10526" x="416.73689" y="1.42106"/>
  <rect fill="#FFEBA2" height="22.10526" id="2b17625b35a9469a9e5ea8eb10793a1b-oa-4" stroke="#2D2D2D" width="93.68421" x="112.52635" y="79.3158"/>
  <rect fill="#FFEBA2" height="27.36842" id="2b17625b35a9469a9e5ea8eb10793a1b-oa-5" stroke="#2D2D2D" width="93.68421" x="175.68424" y="107.73685"/>
  <rect fill="#FFEBA2" height="26.31579" id="2b17625b35a9469a9e5ea8eb10793a1b-oa-6" stroke="#2D2D2D" width="93.68421" x="182.00003" y="150.89475"/>
  <rect fill="#FFEBA2" height="21.05263" id="2b17625b35a9469a9e5ea8eb10793a1b-oa-7" stroke="#2D2D2D" width="95.78948" x="170.42109" y="180.36843"/>
  <rect fill="#FFEBA2" height="11.57895" id="2b17625b35a9469a9e5ea8eb10793a1b-oa-8" stroke="#2D2D2D" width="16.84211" x="187.26319" y="222.4737"/>
  <rect fill="#FFEBA2" height="18.94737" id="2b17625b35a9469a9e5ea8eb10793a1b-oa-9" stroke="#2D2D2D" width="115.78948" x="168.31582" y="269.84212"/>
  <rect fill="#FFEBA2" height="20" id="2b17625b35a9469a9e5ea8eb10793a1b-oa-10" stroke="#2D2D2D" width="62.10527" x="25.15792" y="228.78949"/>
  <rect fill="#FFEBA2" height="23.1579" id="2b17625b35a9469a9e5ea8eb10793a1b-oa-11" stroke="#2D2D2D" width="49.47369" x="24.10529" y="180.36843"/>
  <rect fill="#FFEBA2" height="20" id="2b17625b35a9469a9e5ea8eb10793a1b-oa-12" stroke="#2D2D2D" width="90.52632" x="24.10529" y="121.42106"/>
  <rect fill="#FFEBA2" height="22.10526" id="2b17625b35a9469a9e5ea8eb10793a1b-oa-13" stroke="#2D2D2D" width="67.36842" x="298.84214" y="117.21053"/>
  <rect fill="#FFEBA2" height="20" id="2b17625b35a9469a9e5ea8eb10793a1b-oa-14" stroke="#2D2D2D" width="54.73684" x="296.73688" y="140.36843"/>
  <rect fill="#FFEBA2" height="10.52632" id="2b17625b35a9469a9e5ea8eb10793a1b-oa-15" stroke="#2D2D2D" width="48.42105" x="299.89478" y="169.84212"/>
  <rect fill="#FFEBA2" height="23.1579" id="2b17625b35a9469a9e5ea8eb10793a1b-oa-16" stroke="#2D2D2D" width="55.78948" x="297.78951" y="178.26317"/>
  <rect fill="#FFEBA2" height="8.42105" id="2b17625b35a9469a9e5ea8eb10793a1b-oa-17" stroke="#2D2D2D" width="62.10527" x="291.47372" y="206.68422"/>
  <rect fill="#FFEBA2" height="20" id="2b17625b35a9469a9e5ea8eb10793a1b-oa-18" stroke="#2D2D2D" width="58.94737" x="300.94741" y="220.36843"/>
  <rect fill="#FFEBA2" height="13.68421" id="2b17625b35a9469a9e5ea8eb10793a1b-oa-19" stroke="#2D2D2D" width="52.63158" x="294.63162" y="264.57896"/>
  <rect fill="#FFEBA2" height="10.52632" id="2b17625b35a9469a9e5ea8eb10793a1b-oa-20" stroke="#2D2D2D" width="34.73684" x="499.89478" y="273.00002"/>
  <rect fill="#FFEBA2" height="11.57895" id="2b17625b35a9469a9e5ea8eb10793a1b-oa-21" stroke="#2D2D2D" width="58.94737" x="443.05268" y="249.84212"/>
  <rect fill="#FFEBA2" height="21.05263" id="2b17625b35a9469a9e5ea8eb10793a1b-oa-22" stroke="#2D2D2D" width="77.89474" x="458.84215" y="228.78949"/>
  <rect fill="#FFEBA2" height="16.84211" id="2b17625b35a9469a9e5ea8eb10793a1b-oa-23" stroke="#2D2D2D" width="51.57895" x="482.00005" y="215.10528"/>
  <rect fill="#FFEBA2" height="21.05263" id="2b17625b35a9469a9e5ea8eb10793a1b-oa-24" stroke="#2D2D2D" width="47.36842" x="476.73689" y="167.73685"/>
  <rect fill="#FFEBA2" height="21.05263" id="2b17625b35a9469a9e5ea8eb10793a1b-oa-25" stroke="#2D2D2D" width="51.57895" x="470.4211" y="147.73685"/>
  <rect fill="#FFEBA2" height="18.94737" id="2b17625b35a9469a9e5ea8eb10793a1b-oa-26" stroke="#2D2D2D" width="110.52632" x="443.05268" y="127.73685"/>
  <rect fill="#FFEBA2" height="17.89474" id="2b17625b35a9469a9e5ea8eb10793a1b-oa-27" stroke="#2D2D2D" width="77.89474" x="370.42109" y="108.78948"/>
 </g>
</svg>