<svg height="539" width="491" xmlns="http://www.w3.org/2000/svg">
 <!-- Created with Image Occlusion Enhanced -->
 <g>
  <title>Labels</title>
 </g>
 <g>
  <title>Masks</title>
  <rect fill="#FFEBA2" height="16.47059" id="3082c04f2065414fa55b94115bbe4053-oa-1" stroke="#2D2D2D" width="182.35294" x="71.35293" y="12.76471"/>
  <rect fill="#FFEBA2" height="12.94118" id="3082c04f2065414fa55b94115bbe4053-oa-2" stroke="#2D2D2D" width="192.94118" x="110.17646" y="29.2353"/>
  <rect fill="#FFEBA2" height="16.47059" id="3082c04f2065414fa55b94115bbe4053-oa-3" stroke="#2D2D2D" width="245.88236" x="100.76469" y="44.52942"/>
  <rect fill="#FFEBA2" height="11.76471" id="3082c04f2065414fa55b94115bbe4053-oa-4" stroke="#2D2D2D" width="196.47059" x="94.88234" y="66.88236"/>
  <rect fill="#FFEBA2" height="11.76471" id="3082c04f2065414fa55b94115bbe4053-oa-5" stroke="#2D2D2D" width="376.47059" x="99.58822" y="82.17648"/>
  <rect fill="#FFEBA2" height="3.52941" id="3082c04f2065414fa55b94115bbe4053-oa-6" stroke="#2D2D2D" width="163.52941" x="76.05881" y="105.70589"/>
  <rect fill="#FFEBA2" height="15.29412" id="3082c04f2065414fa55b94115bbe4053-oa-7" stroke="#2D2D2D" width="285.88236" x="96.05881" y="116.29413"/>
  <rect fill="#FFEBA2" height="11.76471" id="3082c04f2065414fa55b94115bbe4053-oa-8" stroke="#2D2D2D" width="142.35294" x="106.64705" y="138.64707"/>
  <rect fill="#FFEBA2" height="11.76471" id="3082c04f2065414fa55b94115bbe4053-oa-9" stroke="#2D2D2D" width="169.41177" x="96.05881" y="152.76472"/>
  <rect fill="#FFEBA2" height="18.82353" id="3082c04f2065414fa55b94115bbe4053-oa-10" stroke="#2D2D2D" width="214.11765" x="101.94116" y="165.70589"/>
  <rect fill="#FFEBA2" height="21.17647" id="3082c04f2065414fa55b94115bbe4053-oa-11" stroke="#2D2D2D" width="208.2353" x="61.94116" y="186.88236"/>
  <rect fill="#FFEBA2" height="12.94118" id="3082c04f2065414fa55b94115bbe4053-oa-12" stroke="#2D2D2D" width="168.2353" x="66.64705" y="206.88236"/>
  <rect fill="#FFEBA2" height="15.29412" id="3082c04f2065414fa55b94115bbe4053-oa-13" stroke="#2D2D2D" width="296.47059" x="99.58822" y="222.17648"/>
  <rect fill="#FFEBA2" height="9.41176" id="3082c04f2065414fa55b94115bbe4053-oa-14" stroke="#2D2D2D" width="185.88236" x="100.76469" y="244.52942"/>
  <rect fill="#FFEBA2" height="11.76471" id="3082c04f2065414fa55b94115bbe4053-oa-15" stroke="#2D2D2D" width="322.35295" x="101.94116" y="261.00001"/>
  <rect fill="#FFEBA2" height="9.41176" id="3082c04f2065414fa55b94115bbe4053-oa-16" stroke="#2D2D2D" width="232.94118" x="101.94116" y="279.82354"/>
  <rect fill="#FFEBA2" height="14.11765" id="3082c04f2065414fa55b94115bbe4053-oa-17" stroke="#2D2D2D" width="172.94118" x="65.47058" y="291.58825"/>
  <rect fill="#FFEBA2" height="15.29412" id="3082c04f2065414fa55b94115bbe4053-oa-18" stroke="#2D2D2D" width="147.05883" x="104.2941" y="305.70589"/>
  <rect fill="#FFEBA2" height="15.29412" id="3082c04f2065414fa55b94115bbe4053-oa-19" stroke="#2D2D2D" width="178.82353" x="104.2941" y="328.05884"/>
  <rect fill="#FFEBA2" height="17.64706" id="3082c04f2065414fa55b94115bbe4053-oa-20" stroke="#2D2D2D" width="223.52941" x="97.23528" y="343.35295"/>
  <rect fill="#FFEBA2" height="15.29412" id="3082c04f2065414fa55b94115bbe4053-oa-21" stroke="#2D2D2D" width="178.82353" x="67.82352" y="363.35295"/>
  <rect fill="#FFEBA2" height="20" id="3082c04f2065414fa55b94115bbe4053-oa-22" stroke="#2D2D2D" width="162.35294" x="99.58822" y="378.64707"/>
  <rect fill="#FFEBA2" height="10.58824" id="3082c04f2065414fa55b94115bbe4053-oa-23" stroke="#2D2D2D" width="203.52941" x="90.17646" y="398.64707"/>
  <rect fill="#FFEBA2" height="21.17647" id="3082c04f2065414fa55b94115bbe4053-oa-24" stroke="#2D2D2D" width="340" x="98.41175" y="409.23531"/>
  <rect fill="#FFEBA2" height="14.11765" id="3082c04f2065414fa55b94115bbe4053-oa-25" stroke="#2D2D2D" width="189.41177" x="39.58822" y="435.11766"/>
  <rect fill="#FFEBA2" height="54.11765" id="3082c04f2065414fa55b94115bbe4053-oa-26" stroke="#2D2D2D" width="467.05883" x="18.41175" y="465.7059"/>
  <rect fill="#FFEBA2" height="12.94118" id="3082c04f2065414fa55b94115bbe4053-oa-27" stroke="#2D2D2D" width="368.2353" x="87.82352" y="522.17648"/>
 </g>
</svg>