<svg xmlns="http://www.w3.org/2000/svg" width="993" height="588">
 <!-- Created with Image Occlusion Enhanced -->
 <g>
  <title>Labels</title>
 </g>
 <g>
  <title>Masks</title>
  <rect id="34b9ba98a17443ed915084f0001578d4-oa-1" height="16.66667" width="171.42857" y="69.14283" x="482.00001" stroke="#2D2D2D" fill="#ffff00"/>
  <rect id="34b9ba98a17443ed915084f0001578d4-oa-2" height="19.04762" width="201.19048" y="164.38093" x="483.19048" stroke="#2D2D2D" fill="#ffff00"/>
  <rect id="34b9ba98a17443ed915084f0001578d4-oa-3" height="19.04762" width="64.28571" y="233.42855" x="528.42858" stroke="#2D2D2D" fill="#ffff00"/>
  <rect id="34b9ba98a17443ed915084f0001578d4-oa-4" height="15.47619" width="64.28571" y="283.42855" x="520.09525" stroke="#2D2D2D" fill="#ffff00"/>
  <rect id="34b9ba98a17443ed915084f0001578d4-oa-5" height="22.61905" width="163.09524" y="233.42855" x="603.42858" stroke="#2D2D2D" fill="#ffff00"/>
  <rect id="34b9ba98a17443ed915084f0001578d4-oa-6" height="14.28571" width="113.09524" y="261.99998" x="582.00001" stroke="#2D2D2D" fill="#ffff00"/>
  <rect id="34b9ba98a17443ed915084f0001578d4-oa-7" height="16.66667" width="122.61905" y="282.23807" x="697.4762" stroke="#2D2D2D" fill="#ffff00"/>
  <rect id="34b9ba98a17443ed915084f0001578d4-oa-8" height="17.85714" width="79.76191" y="302.47617" x="491.52382" stroke="#2D2D2D" fill="#ffff00"/>
  <rect id="34b9ba98a17443ed915084f0001578d4-oa-9" height="26.19048" width="114.28571" y="379.85712" x="393.90477" stroke="#2D2D2D" fill="#ffff00"/>
  <rect id="34b9ba98a17443ed915084f0001578d4-oa-10" height="22.61905" width="104.76191" y="414.38093" x="389.14287" stroke="#2D2D2D" fill="#ffff00"/>
  <rect id="34b9ba98a17443ed915084f0001578d4-oa-11" height="21.42857" width="170.2381" y="445.33331" x="333.19048" stroke="#2D2D2D" fill="#ffff00"/>
  <rect id="34b9ba98a17443ed915084f0001578d4-oa-12" height="26.19048" width="134.52381" y="478.66664" x="360.57144" stroke="#2D2D2D" fill="#ffff00"/>
  <rect id="34b9ba98a17443ed915084f0001578d4-oa-13" height="26.19048" width="135.71429" y="515.57141" x="365.33334" stroke="#2D2D2D" fill="#ffff00"/>
  <rect id="34b9ba98a17443ed915084f0001578d4-oa-14" height="25" width="138.09524" y="206.04759" x="283.19048" stroke="#2D2D2D" fill="#ffff00"/>
  <rect id="34b9ba98a17443ed915084f0001578d4-oa-15" height="34.52381" width="136.90476" y="310.8095" x="282.00001" stroke="#2D2D2D" fill="#ffff00"/>
  <rect id="34b9ba98a17443ed915084f0001578d4-oa-16" height="29.7619" width="75" y="545.33331" x="105.80953" stroke="#2D2D2D" fill="#ffff00"/>
  <rect id="34b9ba98a17443ed915084f0001578d4-oa-17" height="27.38095" width="79.76191" y="40.5714" x="482.00001" stroke="#2D2D2D" fill="#ffff00"/>
 </g>
</svg>