<svg height="606" width="846" xmlns="http://www.w3.org/2000/svg">
 <!-- Created with Image Occlusion Enhanced -->
 <g>
  <title>Labels</title>
 </g>
 <g>
  <title>Masks</title>
  <rect fill="#FFEBA2" height="34.14634" id="355f788328384e1c97e040c51132cb8e-oa-1" stroke="#2D2D2D" width="184.14635" x="249.122" y="-7.21955"/>
  <rect fill="#FFEBA2" height="35.36586" id="355f788328384e1c97e040c51132cb8e-oa-2" stroke="#2D2D2D" width="52.43903" x="488.1464" y="-1.12199"/>
  <rect fill="#FFEBA2" height="20.73171" id="355f788328384e1c97e040c51132cb8e-oa-3" stroke="#2D2D2D" width="110.97561" x="522.29274" y="30.58533"/>
  <rect fill="#FFEBA2" height="18.29268" id="355f788328384e1c97e040c51132cb8e-oa-4" stroke="#2D2D2D" width="84.14635" x="560.09762" y="58.63411"/>
  <rect fill="#FFEBA2" height="31.70732" id="355f788328384e1c97e040c51132cb8e-oa-5" stroke="#2D2D2D" width="93.90244" x="591.80494" y="73.26826"/>
  <rect fill="#FFEBA2" height="45.12195" id="355f788328384e1c97e040c51132cb8e-oa-6" stroke="#2D2D2D" width="87.80488" x="694.24397" y="241.56095"/>
  <rect fill="#FFEBA2" height="42.68293" id="355f788328384e1c97e040c51132cb8e-oa-7" stroke="#2D2D2D" width="78.04878" x="700.34153" y="296.439"/>
  <rect fill="#FFEBA2" height="12.19512" id="355f788328384e1c97e040c51132cb8e-oa-8" stroke="#2D2D2D" width="93.90244" x="617.4147" y="374.48778"/>
  <rect fill="#FFEBA2" height="20.73171" id="355f788328384e1c97e040c51132cb8e-oa-9" stroke="#2D2D2D" width="106.09757" x="622.29274" y="404.97559"/>
  <rect fill="#FFEBA2" height="26.82927" id="355f788328384e1c97e040c51132cb8e-oa-10" stroke="#2D2D2D" width="86.58537" x="628.39031" y="440.34144"/>
  <rect fill="#FFEBA2" height="20.73171" id="355f788328384e1c97e040c51132cb8e-oa-11" stroke="#2D2D2D" width="85.36586" x="633.26836" y="484.24389"/>
  <rect fill="#FFEBA2" height="23.17073" id="355f788328384e1c97e040c51132cb8e-oa-12" stroke="#2D2D2D" width="91.46342" x="638.1464" y="524.48779"/>
  <rect fill="#FFEBA2" height="18.29268" id="355f788328384e1c97e040c51132cb8e-oa-13" stroke="#2D2D2D" width="74.39025" x="629.60982" y="557.41462"/>
  <rect fill="#FFEBA2" height="9.7561" id="355f788328384e1c97e040c51132cb8e-oa-14" stroke="#2D2D2D" width="35.36586" x="183.26834" y="336.6829"/>
  <rect fill="#FFEBA2" height="17.07317" id="355f788328384e1c97e040c51132cb8e-oa-15" stroke="#2D2D2D" width="129.2683" x="100.3415" y="370.82925"/>
  <rect fill="#FFEBA2" height="19.5122" id="355f788328384e1c97e040c51132cb8e-oa-16" stroke="#2D2D2D" width="74.39025" x="133.26833" y="293.99998"/>
  <rect fill="#FFEBA2" height="35.36586" id="355f788328384e1c97e040c51132cb8e-oa-17" stroke="#2D2D2D" width="137.80488" x="96.68297" y="253.75607"/>
  <rect fill="#FFEBA2" height="24.39024" id="355f788328384e1c97e040c51132cb8e-oa-18" stroke="#2D2D2D" width="159.7561" x="35.70735" y="217.1707"/>
  <rect fill="#FFEBA2" height="26.82927" id="355f788328384e1c97e040c51132cb8e-oa-19" stroke="#2D2D2D" width="112.19513" x="80.82931" y="178.14631"/>
  <rect fill="#FFEBA2" height="21.95122" id="355f788328384e1c97e040c51132cb8e-oa-20" stroke="#2D2D2D" width="104.87805" x="85.70736" y="140.34143"/>
  <rect fill="#FFEBA2" height="20.73171" id="355f788328384e1c97e040c51132cb8e-oa-21" stroke="#2D2D2D" width="73.17073" x="80.82931" y="100.09753"/>
  <rect fill="#FFEBA2" height="28.04878" id="355f788328384e1c97e040c51132cb8e-oa-22" stroke="#2D2D2D" width="108.53659" x="207.65858" y="76.9268"/>
  <rect fill="#FFEBA2" height="29.26829" id="355f788328384e1c97e040c51132cb8e-oa-23" stroke="#2D2D2D" width="125.60976" x="227.17078" y="37.9024"/>
  <rect fill="#FFEBA2" height="60.97561" id="355f788328384e1c97e040c51132cb8e-oa-24" stroke="#2D2D2D" width="174.39025" x="58.87809" y="436.68291"/>
  <rect fill="#FFEBA2" height="17.07317" id="355f788328384e1c97e040c51132cb8e-oa-25" stroke="#2D2D2D" width="81.70732" x="144.24394" y="402.53657"/>
  <rect fill="#FFEBA2" height="18.29268" id="355f788328384e1c97e040c51132cb8e-oa-26" stroke="#2D2D2D" width="123.17074" x="86.92687" y="507.41462"/>
  <rect fill="#FFEBA2" height="9.7561" id="355f788328384e1c97e040c51132cb8e-oa-27" stroke="#2D2D2D" width="63.41464" x="117.41467" y="543.99999"/>
 </g>
</svg>