<svg height="403" width="507.99999999999994" xmlns="http://www.w3.org/2000/svg">
 <!-- Created with Image Occlusion Enhanced -->
 <g>
  <title>Labels</title>
 </g>
 <g>
  <title>Masks</title>
  <rect fill="#FFEBA2" height="16.66667" id="3c3437660e2b4890bacfc8a078ab9100-oa-1" stroke="#2D2D2D" width="156.48148" x="66.99998" y="-2.07407"/>
  <rect fill="#FFEBA2" height="22.22222" id="3c3437660e2b4890bacfc8a078ab9100-oa-2" stroke="#2D2D2D" width="207.40741" x="94.77775" y="19.22223"/>
  <rect fill="#FFEBA2" height="13.88889" id="3c3437660e2b4890bacfc8a078ab9100-oa-3" stroke="#2D2D2D" width="235.18519" x="94.77775" y="36.81482"/>
  <rect fill="#FFEBA2" height="19.44444" id="3c3437660e2b4890bacfc8a078ab9100-oa-4" stroke="#2D2D2D" width="261.11112" x="84.59257" y="59.96297"/>
  <rect fill="#FFEBA2" height="14.81482" id="3c3437660e2b4890bacfc8a078ab9100-oa-5" stroke="#2D2D2D" width="267.5926" x="86.44442" y="79.40742"/>
  <rect fill="#FFEBA2" height="12.96296" id="3c3437660e2b4890bacfc8a078ab9100-oa-6" stroke="#2D2D2D" width="104.62963" x="66.07405" y="100.70372"/>
  <rect fill="#FFEBA2" height="13.88889" id="3c3437660e2b4890bacfc8a078ab9100-oa-7" stroke="#2D2D2D" width="377.77779" x="95.70368" y="118.29631"/>
  <rect fill="#FFEBA2" height="17.59259" id="3c3437660e2b4890bacfc8a078ab9100-oa-8" stroke="#2D2D2D" width="459.25927" x="23.48146" y="141.44446"/>
  <rect fill="#FFEBA2" height="18.51852" id="3c3437660e2b4890bacfc8a078ab9100-oa-9" stroke="#2D2D2D" width="177.77778" x="88.29627" y="162.74075"/>
  <rect fill="#FFEBA2" height="14.81482" id="3c3437660e2b4890bacfc8a078ab9100-oa-10" stroke="#2D2D2D" width="245.37038" x="96.62961" y="181.25927"/>
  <rect fill="#FFEBA2" height="11.11111" id="3c3437660e2b4890bacfc8a078ab9100-oa-11" stroke="#2D2D2D" width="237.96297" x="68.85183" y="205.33335"/>
  <rect fill="#FFEBA2" height="31.48148" id="3c3437660e2b4890bacfc8a078ab9100-oa-12" stroke="#2D2D2D" width="454.62964" x="21.6296" y="214.59261"/>
  <rect fill="#FFEBA2" height="8.33333" id="3c3437660e2b4890bacfc8a078ab9100-oa-13" stroke="#2D2D2D" width="287.96297" x="84.59257" y="249.77779"/>
  <rect fill="#FFEBA2" height="17.59259" id="3c3437660e2b4890bacfc8a078ab9100-oa-14" stroke="#2D2D2D" width="342.5926" x="84.59257" y="260.8889"/>
  <rect fill="#FFEBA2" height="12.96296" id="3c3437660e2b4890bacfc8a078ab9100-oa-15" stroke="#2D2D2D" width="256.48149" x="98.48146" y="284.96298"/>
  <rect fill="#FFEBA2" height="11.11111" id="3c3437660e2b4890bacfc8a078ab9100-oa-16" stroke="#2D2D2D" width="238.88889" x="68.85183" y="302.55557"/>
  <rect fill="#FFEBA2" height="27.77778" id="3c3437660e2b4890bacfc8a078ab9100-oa-17" stroke="#2D2D2D" width="445.37038" x="27.18516" y="323.85187"/>
  <rect fill="#FFEBA2" height="8.33333" id="3c3437660e2b4890bacfc8a078ab9100-oa-18" stroke="#2D2D2D" width="256.48149" x="89.2222" y="356.25928"/>
  <rect fill="#FFEBA2" height="12.96296" id="3c3437660e2b4890bacfc8a078ab9100-oa-19" stroke="#2D2D2D" width="376.85186" x="82.74072" y="369.22224"/>
  <rect fill="#FFEBA2" height="12.03704" id="3c3437660e2b4890bacfc8a078ab9100-oa-20" stroke="#2D2D2D" width="268.51852" x="93.85183" y="384.96298"/>
 </g>
</svg>