<svg height="297" width="590" xmlns="http://www.w3.org/2000/svg">
 <!-- Created with Image Occlusion Enhanced -->
 <g>
  <title>Labels</title>
 </g>
 <g>
  <title>Masks</title>
  <rect fill="#FFEBA2" height="12.90323" id="4128bd01ea4048dc92b3a72e80f0040f-oa-1" stroke="#2D2D2D" width="40.86022" x="19.67739" y="53.53765"/>
  <rect fill="#7fff00" height="15.05376" id="4128bd01ea4048dc92b3a72e80f0040f-oa-2" stroke="#2D2D2D" width="54.83871" x="22.9032" y="67.51614"/>
  <rect fill="#7fff00" height="11.82796" id="4128bd01ea4048dc92b3a72e80f0040f-oa-3" stroke="#2D2D2D" width="45.16129" x="21.82793" y="82.5699"/>
  <rect fill="#7fff00" height="12.90323" id="4128bd01ea4048dc92b3a72e80f0040f-oa-4" stroke="#2D2D2D" width="45.16129" x="21.82793" y="97.62367"/>
  <rect fill="#7fff00" height="19.35484" id="4128bd01ea4048dc92b3a72e80f0040f-oa-5" stroke="#2D2D2D" width="102.15054" x="88.4946" y="92.24732"/>
  <rect fill="#7fff00" height="18.27957" id="4128bd01ea4048dc92b3a72e80f0040f-oa-6" stroke="#2D2D2D" width="89.24731" x="94.94621" y="114.82797"/>
  <rect fill="#7fff00" height="15.05376" id="4128bd01ea4048dc92b3a72e80f0040f-oa-7" stroke="#2D2D2D" width="91.39785" x="92.79567" y="140.63442"/>
  <rect fill="#7fff00" height="17.2043" id="4128bd01ea4048dc92b3a72e80f0040f-oa-8" stroke="#2D2D2D" width="62.36559" x="15.37632" y="121.27958"/>
  <rect fill="#7fff00" height="12.90323" id="4128bd01ea4048dc92b3a72e80f0040f-oa-9" stroke="#2D2D2D" width="54.83871" x="20.75266" y="134.18281"/>
  <rect fill="#7fff00" height="10.75269" id="4128bd01ea4048dc92b3a72e80f0040f-oa-10" stroke="#2D2D2D" width="45.16129" x="18.60212" y="150.31184"/>
  <rect fill="#7fff00" height="6.45161" id="4128bd01ea4048dc92b3a72e80f0040f-oa-11" stroke="#2D2D2D" width="53.76344" x="21.82793" y="165.36561"/>
  <rect fill="#7fff00" height="8.60215" id="4128bd01ea4048dc92b3a72e80f0040f-oa-12" stroke="#2D2D2D" width="101.07527" x="21.82793" y="196.5484"/>
  <rect fill="#7fff00" height="11.82796" id="4128bd01ea4048dc92b3a72e80f0040f-oa-13" stroke="#2D2D2D" width="66.66667" x="15.37632" y="208.37636"/>
  <rect fill="#7fff00" height="12.90323" id="4128bd01ea4048dc92b3a72e80f0040f-oa-14" stroke="#2D2D2D" width="67.74194" x="7.84943" y="223.43012"/>
  <rect fill="#7fff00" height="7.52688" id="4128bd01ea4048dc92b3a72e80f0040f-oa-15" stroke="#2D2D2D" width="55.91398" x="20.75266" y="236.33335"/>
  <rect fill="#7fff00" height="32.25807" id="4128bd01ea4048dc92b3a72e80f0040f-oa-16" stroke="#2D2D2D" width="54.83871" x="389.56988" y="92.24732"/>
  <rect fill="#7fff00" height="29.03226" id="4128bd01ea4048dc92b3a72e80f0040f-oa-17" stroke="#2D2D2D" width="79.56989" x="371.29031" y="137.40862"/>
  <rect fill="#7fff00" height="32.25807" id="4128bd01ea4048dc92b3a72e80f0040f-oa-18" stroke="#2D2D2D" width="60.21506" x="386.34407" y="177.19356"/>
  <rect fill="#7fff00" height="16.12903" id="4128bd01ea4048dc92b3a72e80f0040f-oa-19" stroke="#2D2D2D" width="91.39785" x="455.16128" y="79.3441"/>
  <rect fill="#7fff00" height="12.90323" id="4128bd01ea4048dc92b3a72e80f0040f-oa-20" stroke="#2D2D2D" width="54.83871" x="455.16128" y="96.5484"/>
  <rect fill="#7fff00" height="10.75269" id="4128bd01ea4048dc92b3a72e80f0040f-oa-21" stroke="#2D2D2D" width="56.98925" x="461.61289" y="112.67743"/>
  <rect fill="#7fff00" height="12.90323" id="4128bd01ea4048dc92b3a72e80f0040f-oa-22" stroke="#2D2D2D" width="66.66667" x="454.08601" y="146.01077"/>
  <rect fill="#7fff00" height="20.43011" id="4128bd01ea4048dc92b3a72e80f0040f-oa-23" stroke="#2D2D2D" width="80.64516" x="461.61289" y="175.04303"/>
  <rect fill="#7fff00" height="20.43011" id="4128bd01ea4048dc92b3a72e80f0040f-oa-24" stroke="#2D2D2D" width="98.92473" x="456.23654" y="201.92475"/>
  <rect fill="#7fff00" height="17.2043" id="4128bd01ea4048dc92b3a72e80f0040f-oa-25" stroke="#2D2D2D" width="100" x="449.78493" y="246.01077"/>
  <rect fill="#7fff00" height="12.90323" id="4128bd01ea4048dc92b3a72e80f0040f-oa-26" stroke="#2D2D2D" width="118.27957" x="445.48386" y="259.98926"/>
  <rect fill="#7fff00" height="17.2043" id="4128bd01ea4048dc92b3a72e80f0040f-oa-27" stroke="#2D2D2D" width="68.81721" x="430.43009" y="276.1183"/>
  <rect fill="#7fff00" height="163.44087" id="4128bd01ea4048dc92b3a72e80f0040f-oa-28" stroke="#2D2D2D" width="144.08603" x="203.54836" y="79.3441"/>
 </g>
</svg>