<svg height="315" width="569" xmlns="http://www.w3.org/2000/svg">
 <!-- Created with Image Occlusion Enhanced -->
 <g>
  <title>Labels</title>
 </g>
 <g>
  <title>Masks</title>
  <rect fill="#FFEBA2" height="25" id="42b70c15b1e54b388f70e649b6ab0b9b-oa-1" stroke="#2D2D2D" width="57.29167" x="91.41668" y="77.70834"/>
  <rect fill="#FFEBA2" height="29.16667" id="42b70c15b1e54b388f70e649b6ab0b9b-oa-2" stroke="#2D2D2D" width="40.625" x="194.54168" y="91.25001"/>
  <rect fill="#FFEBA2" height="32.29167" id="42b70c15b1e54b388f70e649b6ab0b9b-oa-3" stroke="#2D2D2D" width="47.91667" x="193.50001" y="123.54168"/>
  <rect fill="#FFEBA2" height="22.91667" id="42b70c15b1e54b388f70e649b6ab0b9b-oa-4" stroke="#2D2D2D" width="47.91667" x="324.75002" y="21.45834"/>
  <rect fill="#FFEBA2" height="30.20833" id="42b70c15b1e54b388f70e649b6ab0b9b-oa-5" stroke="#2D2D2D" width="32.29167" x="286.20835" y="42.29167"/>
  <rect fill="#FFEBA2" height="13.54167" id="42b70c15b1e54b388f70e649b6ab0b9b-oa-6" stroke="#2D2D2D" width="57.29167" x="335.16668" y="137.08334"/>
  <rect fill="#FFEBA2" height="9.375" id="42b70c15b1e54b388f70e649b6ab0b9b-oa-7" stroke="#2D2D2D" width="59.375" x="377.87502" y="124.58334"/>
  <rect fill="#FFEBA2" height="10.41667" id="42b70c15b1e54b388f70e649b6ab0b9b-oa-8" stroke="#2D2D2D" width="112.5" x="381.00002" y="108.95834"/>
  <rect fill="#FFEBA2" height="15.625" id="42b70c15b1e54b388f70e649b6ab0b9b-oa-9" stroke="#2D2D2D" width="47.91667" x="382.04168" y="94.37501"/>
  <rect fill="#FFEBA2" height="50" id="42b70c15b1e54b388f70e649b6ab0b9b-oa-10" stroke="#2D2D2D" width="38.54167" x="379.95835" y="0.62501"/>
  <rect fill="#FFEBA2" height="41.66667" id="42b70c15b1e54b388f70e649b6ab0b9b-oa-11" stroke="#2D2D2D" width="45.83333" x="425.79168" y="16.25001"/>
  <rect fill="#FFEBA2" height="10.41667" id="42b70c15b1e54b388f70e649b6ab0b9b-oa-12" stroke="#2D2D2D" width="41.66667" x="376.83335" y="165.20834"/>
  <rect fill="#FFEBA2" height="21.875" id="42b70c15b1e54b388f70e649b6ab0b9b-oa-13" stroke="#2D2D2D" width="46.875" x="315.37502" y="178.75001"/>
  <rect fill="#FFEBA2" height="22.91667" id="42b70c15b1e54b388f70e649b6ab0b9b-oa-14" stroke="#2D2D2D" width="54.16667" x="440.37502" y="211.04168"/>
  <rect fill="#FFEBA2" height="21.875" id="42b70c15b1e54b388f70e649b6ab0b9b-oa-15" stroke="#2D2D2D" width="61.45833" x="433.08335" y="226.66668"/>
  <rect fill="#FFEBA2" height="22.91667" id="42b70c15b1e54b388f70e649b6ab0b9b-oa-16" stroke="#2D2D2D" width="62.5" x="440.37502" y="252.70834"/>
  <rect fill="#FFEBA2" height="28.125" id="42b70c15b1e54b388f70e649b6ab0b9b-oa-17" stroke="#2D2D2D" width="85.41667" x="435.16668" y="280.83335"/>
  <rect fill="#FFEBA2" height="9.375" id="42b70c15b1e54b388f70e649b6ab0b9b-oa-18" stroke="#2D2D2D" width="61.45833" x="319.54168" y="285.00001"/>
  <rect fill="#FFEBA2" height="14.58333" id="42b70c15b1e54b388f70e649b6ab0b9b-oa-19" stroke="#2D2D2D" width="110.41667" x="357.04168" y="297.50001"/>
 </g>
</svg>