<svg height="307" width="512" xmlns="http://www.w3.org/2000/svg">
 <!-- Created with Image Occlusion Enhanced -->
 <g>
  <title>Labels</title>
 </g>
 <g>
  <title>Masks</title>
  <rect fill="#FFEBA2" height="18.69159" id="455b84347e544abdb96b8812d69936cf-oa-1" stroke="#2D2D2D" width="144.85982" x="20.71024" y="89.26169"/>
  <rect fill="#FFEBA2" height="58.87851" id="455b84347e544abdb96b8812d69936cf-oa-2" stroke="#2D2D2D" width="59.81309" x="111.36444" y="113.56076"/>
  <rect fill="#FFEBA2" height="14.95327" id="455b84347e544abdb96b8812d69936cf-oa-3" stroke="#2D2D2D" width="113.08412" x="58.09341" y="179.9159"/>
  <rect fill="#FFEBA2" height="11.21495" id="455b84347e544abdb96b8812d69936cf-oa-4" stroke="#2D2D2D" width="86.91589" x="74.91584" y="199.54207"/>
  <rect fill="#FFEBA2" height="18.69159" id="455b84347e544abdb96b8812d69936cf-oa-5" stroke="#2D2D2D" width="149.53271" x="8.5607" y="211.6916"/>
  <rect fill="#FFEBA2" height="21.49533" id="455b84347e544abdb96b8812d69936cf-oa-6" stroke="#2D2D2D" width="143.92524" x="19.77566" y="236.92525"/>
  <rect fill="#FFEBA2" height="17.75701" id="455b84347e544abdb96b8812d69936cf-oa-7" stroke="#2D2D2D" width="83.17757" x="379.58875" y="235.99067"/>
  <rect fill="#FFEBA2" height="18.69159" id="455b84347e544abdb96b8812d69936cf-oa-8" stroke="#2D2D2D" width="84.11215" x="385.19623" y="204.21497"/>
  <rect fill="#FFEBA2" height="13.08411" id="455b84347e544abdb96b8812d69936cf-oa-9" stroke="#2D2D2D" width="114.95327" x="377.71959" y="184.5888"/>
  <rect fill="#FFEBA2" height="12.14953" id="455b84347e544abdb96b8812d69936cf-oa-10" stroke="#2D2D2D" width="104.6729" x="387.06539" y="164.02805"/>
  <rect fill="#FFEBA2" height="10.28037" id="455b84347e544abdb96b8812d69936cf-oa-11" stroke="#2D2D2D" width="107.47664" x="371.17754" y="136.92525"/>
  <rect fill="#FFEBA2" height="8.41122" id="455b84347e544abdb96b8812d69936cf-oa-12" stroke="#2D2D2D" width="45.79439" x="385.19623" y="113.56076"/>
  <rect fill="#FFEBA2" height="14.01869" id="455b84347e544abdb96b8812d69936cf-oa-13" stroke="#2D2D2D" width="65.42056" x="380.52333" y="35.05608"/>
  <rect fill="#FFEBA2" height="12.14953" id="455b84347e544abdb96b8812d69936cf-oa-14" stroke="#2D2D2D" width="53.27103" x="372.11212" y="62.15889"/>
  <rect fill="#FFEBA2" height="13.08411" id="455b84347e544abdb96b8812d69936cf-oa-15" stroke="#2D2D2D" width="65.42056" x="388.93455" y="78.04674"/>
  <rect fill="#FFEBA2" height="13.08411" id="455b84347e544abdb96b8812d69936cf-oa-16" stroke="#2D2D2D" width="103.73832" x="393.60744" y="94.86917"/>
 </g>
</svg>