<svg height="612" width="508" xmlns="http://www.w3.org/2000/svg">
 <!-- Created with Image Occlusion Enhanced -->
 <g>
  <title>Labels</title>
 </g>
 <g>
  <title>Masks</title>
  <rect fill="#FFEBA2" height="14.66667" id="4789beca709e487f8cbd312f99412fc1-oa-1" stroke="#2D2D2D" width="209.33333" x="69.33333" y="1.33333"/>
  <rect fill="#FFEBA2" height="12" id="4789beca709e487f8cbd312f99412fc1-oa-2" stroke="#2D2D2D" width="206.66667" x="105.33333" y="16"/>
  <rect fill="#FFEBA2" height="9.33333" id="4789beca709e487f8cbd312f99412fc1-oa-3" stroke="#2D2D2D" width="281.33333" x="105.33333" y="34.66667"/>
  <rect fill="#FFEBA2" height="13.33333" id="4789beca709e487f8cbd312f99412fc1-oa-4" stroke="#2D2D2D" width="290.66667" x="105.33333" y="50.66667"/>
  <rect fill="#FFEBA2" height="9.33333" id="4789beca709e487f8cbd312f99412fc1-oa-5" stroke="#2D2D2D" width="106.66667" x="109.33333" y="65.33333"/>
  <rect fill="#FFEBA2" height="9.33333" id="4789beca709e487f8cbd312f99412fc1-oa-6" stroke="#2D2D2D" width="234.66667" x="46.66667" y="85.33333"/>
  <rect fill="#FFEBA2" height="12" id="4789beca709e487f8cbd312f99412fc1-oa-7" stroke="#2D2D2D" width="204" x="98.66667" y="96"/>
  <rect fill="#FFEBA2" height="10.66667" id="4789beca709e487f8cbd312f99412fc1-oa-8" stroke="#2D2D2D" width="245.33333" x="104" y="113.33333"/>
  <rect fill="#FFEBA2" height="14.66667" id="4789beca709e487f8cbd312f99412fc1-oa-9" stroke="#2D2D2D" width="213.33333" x="104" y="124"/>
  <rect fill="#FFEBA2" height="13.33333" id="4789beca709e487f8cbd312f99412fc1-oa-10" stroke="#2D2D2D" width="101.33333" x="97.33333" y="142.66667"/>
  <rect fill="#FFEBA2" height="10.66667" id="4789beca709e487f8cbd312f99412fc1-oa-11" stroke="#2D2D2D" width="172" x="48" y="176"/>
  <rect fill="#FFEBA2" height="28" id="4789beca709e487f8cbd312f99412fc1-oa-12" stroke="#2D2D2D" width="469.33333" x="14.66667" y="196"/>
  <rect fill="#FFEBA2" height="38.66667" id="4789beca709e487f8cbd312f99412fc1-oa-13" stroke="#2D2D2D" width="476" x="20" y="226.66667"/>
  <rect fill="#FFEBA2" height="22.66667" id="4789beca709e487f8cbd312f99412fc1-oa-14" stroke="#2D2D2D" width="129.33333" x="146.66667" y="280"/>
  <rect fill="#FFEBA2" height="38.66667" id="4789beca709e487f8cbd312f99412fc1-oa-15" stroke="#2D2D2D" width="156" x="300" y="302.66667"/>
  <rect fill="#FFEBA2" height="46.66667" id="4789beca709e487f8cbd312f99412fc1-oa-16" stroke="#2D2D2D" width="53.33333" x="372" y="442.66667"/>
  <rect fill="#FFEBA2" height="29.33333" id="4789beca709e487f8cbd312f99412fc1-oa-17" stroke="#2D2D2D" width="84" x="330.66667" y="494.66667"/>
  <rect fill="#FFEBA2" height="17.33333" id="4789beca709e487f8cbd312f99412fc1-oa-18" stroke="#2D2D2D" width="110.66667" x="317.33333" y="545.33333"/>
  <rect fill="#FFEBA2" height="30.66667" id="4789beca709e487f8cbd312f99412fc1-oa-19" stroke="#2D2D2D" width="46.66667" x="86.66667" y="516"/>
  <rect fill="#FFEBA2" height="36" id="4789beca709e487f8cbd312f99412fc1-oa-20" stroke="#2D2D2D" width="112" x="36" y="464"/>
  <rect fill="#FFEBA2" height="42.66667" id="4789beca709e487f8cbd312f99412fc1-oa-21" stroke="#2D2D2D" width="93.33333" x="48" y="402.66667"/>
  <rect fill="#FFEBA2" height="94.66667" id="4789beca709e487f8cbd312f99412fc1-oa-22" stroke="#2D2D2D" width="106.66667" x="64" y="294.66667"/>
 </g>
</svg>