<svg height="545" width="864" xmlns="http://www.w3.org/2000/svg">
 <!-- Created with Image Occlusion Enhanced -->
 <g>
  <title>Labels</title>
 </g>
 <g>
  <title>Masks</title>
  <rect fill="#FFEBA2" height="27.47253" id="4a3fb60edcce4223b2ba952e149718c2-oa-1" stroke="#2D2D2D" width="102.1978" x="107.42858" y="7.74723"/>
  <rect fill="#FFEBA2" height="17.58242" id="4a3fb60edcce4223b2ba952e149718c2-oa-2" stroke="#2D2D2D" width="97.8022" x="116.21979" y="47.30767"/>
  <rect fill="#FFEBA2" height="18.68132" id="4a3fb60edcce4223b2ba952e149718c2-oa-3" stroke="#2D2D2D" width="103.2967" x="115.12089" y="87.96701"/>
  <rect fill="#FFEBA2" height="25.27473" id="4a3fb60edcce4223b2ba952e149718c2-oa-4" stroke="#2D2D2D" width="100" x="103.03298" y="122.03295"/>
  <rect fill="#FFEBA2" height="32.96703" id="4a3fb60edcce4223b2ba952e149718c2-oa-5" stroke="#2D2D2D" width="78.02198" x="166.76924" y="162.69229"/>
  <rect fill="#FFEBA2" height="20.87912" id="4a3fb60edcce4223b2ba952e149718c2-oa-6" stroke="#2D2D2D" width="98.9011" x="157.97803" y="198.95602"/>
  <rect fill="#FFEBA2" height="28.57143" id="4a3fb60edcce4223b2ba952e149718c2-oa-7" stroke="#2D2D2D" width="78.02198" x="161.27474" y="237.41756"/>
  <rect fill="#FFEBA2" height="31.86813" id="4a3fb60edcce4223b2ba952e149718c2-oa-8" stroke="#2D2D2D" width="68.13187" x="222.8132" y="272.5824"/>
  <rect fill="#FFEBA2" height="18.68132" id="4a3fb60edcce4223b2ba952e149718c2-oa-9" stroke="#2D2D2D" width="68.13187" x="236.00001" y="312.14284"/>
  <rect fill="#FFEBA2" height="14.28571" id="4a3fb60edcce4223b2ba952e149718c2-oa-10" stroke="#2D2D2D" width="105.49451" x="200.83518" y="359.39559"/>
  <rect fill="#FFEBA2" height="17.58242" id="4a3fb60edcce4223b2ba952e149718c2-oa-11" stroke="#2D2D2D" width="69.23077" x="230.50551" y="393.46152"/>
  <rect fill="#FFEBA2" height="35.16484" id="4a3fb60edcce4223b2ba952e149718c2-oa-12" stroke="#2D2D2D" width="130.76923" x="210.72529" y="428.62636"/>
  <rect fill="#FFEBA2" height="17.58242" id="4a3fb60edcce4223b2ba952e149718c2-oa-13" stroke="#2D2D2D" width="98.9011" x="199.73628" y="476.978"/>
  <rect fill="#FFEBA2" height="18.68132" id="4a3fb60edcce4223b2ba952e149718c2-oa-14" stroke="#2D2D2D" width="78.02198" x="695.34068" y="182.47251"/>
  <rect fill="#FFEBA2" height="64.83517" id="4a3fb60edcce4223b2ba952e149718c2-oa-15" stroke="#2D2D2D" width="149.45055" x="650.28573" y="72.58239"/>
 </g>
</svg>