<svg height="621" width="845" xmlns="http://www.w3.org/2000/svg">
 <!-- Created with Image Occlusion Enhanced -->
 <g>
  <title>Labels</title>
 </g>
 <g>
  <title>Masks</title>
  <rect fill="#FFEBA2" height="27.5" id="557b05e8e5924de1862ac6290155896c-oa-1" stroke="#2D2D2D" width="88.75" x="138.74999" y="45.25002"/>
  <rect fill="#FFEBA2" height="21.25" id="557b05e8e5924de1862ac6290155896c-oa-2" stroke="#2D2D2D" width="101.25" x="97.49999" y="91.50002"/>
  <rect fill="#FFEBA2" height="30" id="557b05e8e5924de1862ac6290155896c-oa-3" stroke="#2D2D2D" width="112.5" x="103.74999" y="132.75002"/>
  <rect fill="#FFEBA2" height="33.75" id="557b05e8e5924de1862ac6290155896c-oa-4" stroke="#2D2D2D" width="93.75" x="119.99999" y="175.25002"/>
  <rect fill="#FFEBA2" height="18.75" id="557b05e8e5924de1862ac6290155896c-oa-5" stroke="#2D2D2D" width="75" x="131.24999" y="272.75002"/>
  <rect fill="#FFEBA2" height="46.25" id="557b05e8e5924de1862ac6290155896c-oa-6" stroke="#2D2D2D" width="93.75" x="108.74999" y="305.25002"/>
  <rect fill="#FFEBA2" height="21.25" id="557b05e8e5924de1862ac6290155896c-oa-7" stroke="#2D2D2D" width="53.75" x="144.99999" y="362.75002"/>
  <rect fill="#FFEBA2" height="27.5" id="557b05e8e5924de1862ac6290155896c-oa-8" stroke="#2D2D2D" width="88.75" x="129.99999" y="459.00003"/>
  <rect fill="#FFEBA2" height="51.25" id="557b05e8e5924de1862ac6290155896c-oa-9" stroke="#2D2D2D" width="115" x="114.99999" y="394.00002"/>
  <rect fill="#FFEBA2" height="20" id="557b05e8e5924de1862ac6290155896c-oa-10" stroke="#2D2D2D" width="77.5" x="630.00001" y="420.25003"/>
  <rect fill="#FFEBA2" height="20" id="557b05e8e5924de1862ac6290155896c-oa-11" stroke="#2D2D2D" width="126.25" x="641.25001" y="462.75003"/>
  <rect fill="#FFEBA2" height="30" id="557b05e8e5924de1862ac6290155896c-oa-12" stroke="#2D2D2D" width="91.25" x="655.00001" y="505.25003"/>
  <rect fill="#FFEBA2" height="11.25" id="557b05e8e5924de1862ac6290155896c-oa-13" stroke="#2D2D2D" width="105" x="632.50001" y="395.25002"/>
  <rect fill="#FFEBA2" height="33.75" id="557b05e8e5924de1862ac6290155896c-oa-14" stroke="#2D2D2D" width="91.25" x="640.00001" y="351.50002"/>
  <rect fill="#FFEBA2" height="21.25" id="557b05e8e5924de1862ac6290155896c-oa-15" stroke="#2D2D2D" width="112.5" x="637.50001" y="316.50002"/>
  <rect fill="#FFEBA2" height="37.5" id="557b05e8e5924de1862ac6290155896c-oa-16" stroke="#2D2D2D" width="155" x="635.00001" y="274.00002"/>
  <rect fill="#FFEBA2" height="33.75" id="557b05e8e5924de1862ac6290155896c-oa-17" stroke="#2D2D2D" width="188.75" x="635.00001" y="241.50002"/>
  <rect fill="#FFEBA2" height="12.5" id="557b05e8e5924de1862ac6290155896c-oa-18" stroke="#2D2D2D" width="158.75" x="628.75001" y="210.25002"/>
  <rect fill="#FFEBA2" height="32.5" id="557b05e8e5924de1862ac6290155896c-oa-19" stroke="#2D2D2D" width="121.25" x="646.25001" y="167.75002"/>
  <rect fill="#FFEBA2" height="25" id="557b05e8e5924de1862ac6290155896c-oa-20" stroke="#2D2D2D" width="153.75" x="628.75001" y="129.00002"/>
  <rect fill="#FFEBA2" height="20" id="557b05e8e5924de1862ac6290155896c-oa-21" stroke="#2D2D2D" width="107.5" x="635.00001" y="95.25002"/>
  <rect fill="#FFEBA2" height="37.5" id="557b05e8e5924de1862ac6290155896c-oa-22" stroke="#2D2D2D" width="121.25" x="627.50001" y="46.50002"/>
  <rect fill="#FFEBA2" height="28.75" id="557b05e8e5924de1862ac6290155896c-oa-23" stroke="#2D2D2D" width="153.75" x="627.50001" y="14.00002"/>
 </g>
</svg>