<svg height="566" width="970" xmlns="http://www.w3.org/2000/svg">
 <!-- Created with Image Occlusion Enhanced -->
 <g>
  <title>Labels</title>
 </g>
 <g>
  <title>Masks</title>
  <rect fill="#FFEBA2" height="39.28572" id="5a7316e968a946bfa48f3aa07cca9f43-oa-1" stroke="#2D2D2D" width="101.78572" x="121.07139" y="91.14287"/>
  <rect fill="#FFEBA2" height="28.57143" id="5a7316e968a946bfa48f3aa07cca9f43-oa-2" stroke="#2D2D2D" width="87.5" x="631.78569" y="98.28573"/>
  <rect fill="#FFEBA2" height="42.85714" id="5a7316e968a946bfa48f3aa07cca9f43-oa-3" stroke="#2D2D2D" width="110.71429" x="96.07139" y="157.21431"/>
  <rect fill="#FFEBA2" height="10.71429" id="5a7316e968a946bfa48f3aa07cca9f43-oa-4" stroke="#2D2D2D" width="125" x="83.57139" y="221.50002"/>
  <rect fill="#FFEBA2" height="67.85714" id="5a7316e968a946bfa48f3aa07cca9f43-oa-5" stroke="#2D2D2D" width="176.78572" x="33.57138" y="234.00002"/>
  <rect fill="#FFEBA2" height="39.28572" id="5a7316e968a946bfa48f3aa07cca9f43-oa-6" stroke="#2D2D2D" width="64.28572" x="171.07139" y="439.35717"/>
  <rect fill="#FFEBA2" height="23.21429" id="5a7316e968a946bfa48f3aa07cca9f43-oa-7" stroke="#2D2D2D" width="107.14286" x="129.99996" y="509.00003"/>
  <rect fill="#FFEBA2" height="33.92857" id="5a7316e968a946bfa48f3aa07cca9f43-oa-8" stroke="#2D2D2D" width="214.28572" x="672.85712" y="187.57145"/>
  <rect fill="#FFEBA2" height="12.5" id="5a7316e968a946bfa48f3aa07cca9f43-oa-9" stroke="#2D2D2D" width="187.50001" x="665.71426" y="226.85716"/>
  <rect fill="#FFEBA2" height="32.14286" id="5a7316e968a946bfa48f3aa07cca9f43-oa-10" stroke="#2D2D2D" width="196.42858" x="687.14283" y="235.78574"/>
  <rect fill="#FFEBA2" height="25" id="5a7316e968a946bfa48f3aa07cca9f43-oa-11" stroke="#2D2D2D" width="139.28572" x="679.99997" y="266.14288"/>
  <rect fill="#FFEBA2" height="17.85714" id="5a7316e968a946bfa48f3aa07cca9f43-oa-12" stroke="#2D2D2D" width="100" x="674.64283" y="303.64288"/>
  <rect fill="#FFEBA2" height="50" id="5a7316e968a946bfa48f3aa07cca9f43-oa-13" stroke="#2D2D2D" width="258.92858" x="678.21426" y="298.28574"/>
  <rect fill="#FFEBA2" height="30.35714" id="5a7316e968a946bfa48f3aa07cca9f43-oa-14" stroke="#2D2D2D" width="123.21429" x="660.35711" y="428.64288"/>
  <rect fill="#FFEBA2" height="25" id="5a7316e968a946bfa48f3aa07cca9f43-oa-15" stroke="#2D2D2D" width="126.78572" x="672.85712" y="457.21431"/>
  <rect fill="#FFEBA2" height="57.14286" id="5a7316e968a946bfa48f3aa07cca9f43-oa-16" stroke="#2D2D2D" width="119.64286" x="812.14283" y="430.4286"/>
  <rect fill="#FFEBA2" height="46.42857" id="5a7316e968a946bfa48f3aa07cca9f43-oa-17" stroke="#2D2D2D" width="137.5" x="665.71426" y="494.71431"/>
 </g>
</svg>