<svg height="593" width="521" xmlns="http://www.w3.org/2000/svg">
 <!-- Created with Image Occlusion Enhanced -->
 <g>
  <title>Labels</title>
 </g>
 <g>
  <title>Masks</title>
  <rect fill="#FFEBA2" height="14.28571" id="693b24d9b44b4695838c4b619eaf65ed-oa-1" stroke="#2D2D2D" width="50.64935" x="76.40257" y="286.22081"/>
  <rect fill="#FFEBA2" height="16.88312" id="693b24d9b44b4695838c4b619eaf65ed-oa-2" stroke="#2D2D2D" width="51.94805" x="133.54542" y="287.51951"/>
  <rect fill="#FFEBA2" height="15.58442" id="693b24d9b44b4695838c4b619eaf65ed-oa-3" stroke="#2D2D2D" width="154.54546" x="133.54542" y="307.00003"/>
  <rect fill="#FFEBA2" height="7.79221" id="693b24d9b44b4695838c4b619eaf65ed-oa-4" stroke="#2D2D2D" width="70.12987" x="130.94802" y="326.48055"/>
  <rect fill="#FFEBA2" height="12.98701" id="693b24d9b44b4695838c4b619eaf65ed-oa-5" stroke="#2D2D2D" width="212.98702" x="132.24672" y="343.36367"/>
  <rect fill="#FFEBA2" height="7.79221" id="693b24d9b44b4695838c4b619eaf65ed-oa-6" stroke="#2D2D2D" width="222.07793" x="80.29867" y="365.44159"/>
  <rect fill="#FFEBA2" height="6.49351" id="693b24d9b44b4695838c4b619eaf65ed-oa-7" stroke="#2D2D2D" width="335.06495" x="137.44153" y="383.62341"/>
  <rect fill="#FFEBA2" height="11.68831" id="693b24d9b44b4695838c4b619eaf65ed-oa-8" stroke="#2D2D2D" width="55.84416" x="138.74023" y="397.90912"/>
  <rect fill="#FFEBA2" height="24.67533" id="693b24d9b44b4695838c4b619eaf65ed-oa-9" stroke="#2D2D2D" width="241.55845" x="121.85711" y="405.70133"/>
  <rect fill="#FFEBA2" height="15.58442" id="693b24d9b44b4695838c4b619eaf65ed-oa-10" stroke="#2D2D2D" width="227.27273" x="73.80516" y="430.37666"/>
  <rect fill="#FFEBA2" height="11.68831" id="693b24d9b44b4695838c4b619eaf65ed-oa-11" stroke="#2D2D2D" width="288.3117" x="128.35062" y="448.55847"/>
  <rect fill="#FFEBA2" height="14.28571" id="693b24d9b44b4695838c4b619eaf65ed-oa-12" stroke="#2D2D2D" width="158.44156" x="127.05192" y="468.039"/>
  <rect fill="#FFEBA2" height="15.58442" id="693b24d9b44b4695838c4b619eaf65ed-oa-13" stroke="#2D2D2D" width="197.4026" x="127.05192" y="486.22081"/>
  <rect fill="#FFEBA2" height="14.28571" id="693b24d9b44b4695838c4b619eaf65ed-oa-14" stroke="#2D2D2D" width="115.58442" x="73.80516" y="504.40263"/>
  <rect fill="#FFEBA2" height="11.68831" id="693b24d9b44b4695838c4b619eaf65ed-oa-15" stroke="#2D2D2D" width="146.75325" x="125.75322" y="522.58445"/>
  <rect fill="#FFEBA2" height="12.98701" id="693b24d9b44b4695838c4b619eaf65ed-oa-16" stroke="#2D2D2D" width="48.05195" x="125.75322" y="538.16887"/>
  <rect fill="#FFEBA2" height="18.18182" id="693b24d9b44b4695838c4b619eaf65ed-oa-17" stroke="#2D2D2D" width="471.42859" x="40.03893" y="558.94809"/>
 </g>
</svg>