<svg height="613" width="499" xmlns="http://www.w3.org/2000/svg">
 <!-- Created with Image Occlusion Enhanced -->
 <g>
  <title>Labels</title>
 </g>
 <g>
  <title>Masks</title>
  <rect fill="#FFEBA2" height="17.33333" id="715ae679693143e2a79893ffe5de6509-oa-1" stroke="#2D2D2D" width="140" x="23.66667" y="0.33333"/>
  <rect fill="#FFEBA2" height="16" id="715ae679693143e2a79893ffe5de6509-oa-2" stroke="#2D2D2D" width="220" x="38.33333" y="24.33333"/>
  <rect fill="#FFEBA2" height="16" id="715ae679693143e2a79893ffe5de6509-oa-3" stroke="#2D2D2D" width="302.66667" x="26.33333" y="40.33333"/>
  <rect fill="#FFEBA2" height="25.33333" id="715ae679693143e2a79893ffe5de6509-oa-4" stroke="#2D2D2D" width="453.33333" x="17" y="69.66667"/>
  <rect fill="#FFEBA2" height="18.66667" id="715ae679693143e2a79893ffe5de6509-oa-5" stroke="#2D2D2D" width="468" x="2.33333" y="101.66667"/>
  <rect fill="#FFEBA2" height="14.66667" id="715ae679693143e2a79893ffe5de6509-oa-6" stroke="#2D2D2D" width="314.66667" x="86.33333" y="135"/>
  <rect fill="#FFEBA2" height="26.66667" id="715ae679693143e2a79893ffe5de6509-oa-7" stroke="#2D2D2D" width="468" x="3.66667" y="152.33333"/>
  <rect fill="#FFEBA2" height="89.33333" id="715ae679693143e2a79893ffe5de6509-oa-8" stroke="#2D2D2D" width="74.66667" x="327.66667" y="211"/>
  <rect fill="#FFEBA2" height="53.33333" id="715ae679693143e2a79893ffe5de6509-oa-9" stroke="#2D2D2D" width="100" x="298.33333" y="317.66667"/>
  <rect fill="#FFEBA2" height="65.33333" id="715ae679693143e2a79893ffe5de6509-oa-10" stroke="#2D2D2D" width="104" x="90.33333" y="204.33333"/>
  <rect fill="#FFEBA2" height="72" id="715ae679693143e2a79893ffe5de6509-oa-11" stroke="#2D2D2D" width="85.33333" x="114.33333" y="285.66667"/>
  <rect fill="#FFEBA2" height="30.66667" id="715ae679693143e2a79893ffe5de6509-oa-12" stroke="#2D2D2D" width="202.66667" x="34.33333" y="504.33333"/>
  <rect fill="#FFEBA2" height="13.33333" id="715ae679693143e2a79893ffe5de6509-oa-13" stroke="#2D2D2D" width="230.66667" x="95.66667" y="535"/>
  <rect fill="#FFEBA2" height="17.33333" id="715ae679693143e2a79893ffe5de6509-oa-14" stroke="#2D2D2D" width="366.66667" x="87.66667" y="552.33333"/>
  <rect fill="#FFEBA2" height="13.33333" id="715ae679693143e2a79893ffe5de6509-oa-15" stroke="#2D2D2D" width="188" x="94.33333" y="579"/>
  <rect fill="#FFEBA2" height="9.33333" id="715ae679693143e2a79893ffe5de6509-oa-16" stroke="#2D2D2D" width="210.66667" x="99.66667" y="599"/>
 </g>
</svg>