<svg height="615" width="618" xmlns="http://www.w3.org/2000/svg">
 <!-- Created with Image Occlusion Enhanced -->
 <g>
  <title>Labels</title>
 </g>
 <g>
  <title>Masks</title>
  <rect fill="#FFEBA2" height="14.66667" id="7623896139d84eaa8f1e5e3fc4ca6ec6-oa-1" stroke="#2D2D2D" width="166.66667" x="72.66667" y="7.66667"/>
  <rect fill="#FFEBA2" height="17.33333" id="7623896139d84eaa8f1e5e3fc4ca6ec6-oa-2" stroke="#2D2D2D" width="136" x="266" y="3.66667"/>
  <rect fill="#FFEBA2" height="14.66667" id="7623896139d84eaa8f1e5e3fc4ca6ec6-oa-3" stroke="#2D2D2D" width="341.33333" x="126" y="21"/>
  <rect fill="#FFEBA2" height="18.66667" id="7623896139d84eaa8f1e5e3fc4ca6ec6-oa-4" stroke="#2D2D2D" width="81.33333" x="126" y="47.66667"/>
  <rect fill="#FFEBA2" height="16" id="7623896139d84eaa8f1e5e3fc4ca6ec6-oa-5" stroke="#2D2D2D" width="148" x="135.33333" y="67.66667"/>
  <rect fill="#FFEBA2" height="25.33333" id="7623896139d84eaa8f1e5e3fc4ca6ec6-oa-6" stroke="#2D2D2D" width="104" x="59.33333" y="86.33333"/>
  <rect fill="#FFEBA2" height="18.66667" id="7623896139d84eaa8f1e5e3fc4ca6ec6-oa-7" stroke="#2D2D2D" width="133.33333" x="176.66667" y="94.33333"/>
  <rect fill="#FFEBA2" height="20" id="7623896139d84eaa8f1e5e3fc4ca6ec6-oa-8" stroke="#2D2D2D" width="244" x="128.66667" y="115.66667"/>
  <rect fill="#FFEBA2" height="16" id="7623896139d84eaa8f1e5e3fc4ca6ec6-oa-9" stroke="#2D2D2D" width="77.33333" x="132.66667" y="135.66667"/>
  <rect fill="#FFEBA2" height="16" id="7623896139d84eaa8f1e5e3fc4ca6ec6-oa-10" stroke="#2D2D2D" width="245.33333" x="131.33333" y="159.66667"/>
  <rect fill="#FFEBA2" height="20" id="7623896139d84eaa8f1e5e3fc4ca6ec6-oa-11" stroke="#2D2D2D" width="146.66667" x="160.66667" y="178.33333"/>
  <rect fill="#FFEBA2" height="12" id="7623896139d84eaa8f1e5e3fc4ca6ec6-oa-12" stroke="#2D2D2D" width="108" x="60.66667" y="181"/>
  <rect fill="#FFEBA2" height="26.66667" id="7623896139d84eaa8f1e5e3fc4ca6ec6-oa-13" stroke="#2D2D2D" width="405.33333" x="124.66667" y="194.33333"/>
  <rect fill="#FFEBA2" height="26.66667" id="7623896139d84eaa8f1e5e3fc4ca6ec6-oa-14" stroke="#2D2D2D" width="225.33333" x="124.66667" y="246.33333"/>
  <rect fill="#FFEBA2" height="20" id="7623896139d84eaa8f1e5e3fc4ca6ec6-oa-15" stroke="#2D2D2D" width="309.33333" x="127.33333" y="227.66667"/>
 </g>
</svg>