<svg height="435" width="598" xmlns="http://www.w3.org/2000/svg">
 <!-- Created with Image Occlusion Enhanced -->
 <g>
  <title>Labels</title>
 </g>
 <g>
  <title>Masks</title>
  <rect fill="#FFEBA2" height="18.42105" id="77fc49871c484646afa70b3ce2475aa6-oa-1" stroke="#2D2D2D" width="59.64913" x="59.89477" y="31.66667"/>
  <rect fill="#FFEBA2" height="25.4386" id="77fc49871c484646afa70b3ce2475aa6-oa-2" stroke="#2D2D2D" width="112.28071" x="55.5088" y="65.87719"/>
  <rect fill="#FFEBA2" height="36.84211" id="77fc49871c484646afa70b3ce2475aa6-oa-3" stroke="#2D2D2D" width="116.66667" x="426.56145" y="29.03509"/>
  <rect fill="#FFEBA2" height="22.80702" id="77fc49871c484646afa70b3ce2475aa6-oa-4" stroke="#2D2D2D" width="140.35088" x="435.33338" y="85.17544"/>
  <rect fill="#FFEBA2" height="28.07018" id="77fc49871c484646afa70b3ce2475aa6-oa-5" stroke="#2D2D2D" width="86.84211" x="411.64917" y="136.05264"/>
  <rect fill="#FFEBA2" height="17.54386" id="77fc49871c484646afa70b3ce2475aa6-oa-6" stroke="#2D2D2D" width="57.89474" x="409.01759" y="174.64913"/>
  <rect fill="#FFEBA2" height="42.10526" id="77fc49871c484646afa70b3ce2475aa6-oa-7" stroke="#2D2D2D" width="129.82457" x="418.66671" y="200.08773"/>
  <rect fill="#FFEBA2" height="17.54386" id="77fc49871c484646afa70b3ce2475aa6-oa-8" stroke="#2D2D2D" width="107.89474" x="22.17547" y="184.29825"/>
  <rect fill="#FFEBA2" height="59.64913" id="77fc49871c484646afa70b3ce2475aa6-oa-9" stroke="#2D2D2D" width="114.03509" x="2.87722" y="105.35088"/>
  <rect fill="#FFEBA2" height="28.07018" id="77fc49871c484646afa70b3ce2475aa6-oa-10" stroke="#2D2D2D" width="152.63159" x="33.57897" y="271.14036"/>
  <rect fill="#FFEBA2" height="32.45614" id="77fc49871c484646afa70b3ce2475aa6-oa-11" stroke="#2D2D2D" width="135.96492" x="46.73687" y="314.12282"/>
  <rect fill="#FFEBA2" height="33.33333" id="77fc49871c484646afa70b3ce2475aa6-oa-12" stroke="#2D2D2D" width="94.73685" x="87.96494" y="368.50879"/>
  <rect fill="#FFEBA2" height="52.63158" id="77fc49871c484646afa70b3ce2475aa6-oa-13" stroke="#2D2D2D" width="125.4386" x="421.29829" y="260.61404"/>
  <rect fill="#FFEBA2" height="21.05263" id="77fc49871c484646afa70b3ce2475aa6-oa-14" stroke="#2D2D2D" width="130.70176" x="438.84215" y="315.00001"/>
  <rect fill="#FFEBA2" height="19.29825" id="77fc49871c484646afa70b3ce2475aa6-oa-15" stroke="#2D2D2D" width="91.22807" x="468.66671" y="349.21054"/>
  <rect fill="#FFEBA2" height="23.68421" id="77fc49871c484646afa70b3ce2475aa6-oa-16" stroke="#2D2D2D" width="166.66667" x="435.33338" y="385.17545"/>
 </g>
</svg>