<svg xmlns="http://www.w3.org/2000/svg" width="815" height="582">
 <!-- Created with Image Occlusion Enhanced -->
 <g>
  <title>Labels</title>
 </g>
 <g>
  <title>Masks</title>
  <rect id="7ed7998a31814579971a3b818a4b899e-oa-1" height="28.23529" width="94.11765" y="162.70586" x="200.29412" stroke="#2D2D2D" fill="#ffff00"/>
  <rect id="7ed7998a31814579971a3b818a4b899e-oa-2" height="11.76471" width="65.88235" y="201.52939" x="200.29412" stroke="#2D2D2D" fill="#ffff00"/>
  <rect id="7ed7998a31814579971a3b818a4b899e-oa-3" height="20" width="92.94118" y="196.82351" x="26.17647" stroke="#2D2D2D" fill="#ffff00"/>
  <rect id="7ed7998a31814579971a3b818a4b899e-oa-4" height="17.64706" width="49.41176" y="227.41174" x="208.52941" stroke="#2D2D2D" fill="#ffff00"/>
  <rect id="7ed7998a31814579971a3b818a4b899e-oa-5" height="29.41176" width="134.11765" y="273.2941" x="92.05882" stroke="#2D2D2D" fill="#ffff00"/>
  <rect id="7ed7998a31814579971a3b818a4b899e-oa-6" height="29.41176" width="69.41176" y="322.70586" x="203.82353" stroke="#2D2D2D" fill="#ffff00"/>
  <rect id="7ed7998a31814579971a3b818a4b899e-oa-7" height="16.47059" width="148.23529" y="359.17645" x="145" stroke="#2D2D2D" fill="#ffff00"/>
  <rect id="7ed7998a31814579971a3b818a4b899e-oa-8" height="12.94118" width="104.70588" y="383.88233" x="28.52941" stroke="#2D2D2D" fill="#ffff00"/>
  <rect id="7ed7998a31814579971a3b818a4b899e-oa-9" height="20" width="71.76471" y="427.41174" x="29.70588" stroke="#2D2D2D" fill="#ffff00"/>
  <rect id="7ed7998a31814579971a3b818a4b899e-oa-10" height="20" width="108.23529" y="480.35292" x="126.17647" stroke="#2D2D2D" fill="#ffff00"/>
  <rect id="7ed7998a31814579971a3b818a4b899e-oa-11" height="15.29412" width="150.58824" y="508.58821" x="29.70588" stroke="#2D2D2D" fill="#ffff00"/>
  <rect id="7ed7998a31814579971a3b818a4b899e-oa-12" height="22.35294" width="122.35294" y="530.94115" x="173.23529" stroke="#2D2D2D" fill="#ffff00"/>
  <rect id="7ed7998a31814579971a3b818a4b899e-oa-13" height="17.64706" width="43.52941" y="348.58821" x="675.58824" stroke="#2D2D2D" fill="#ffff00"/>
  <rect id="7ed7998a31814579971a3b818a4b899e-oa-14" height="28.23529" width="67.05882" y="541.52939" x="513.23529" stroke="#2D2D2D" fill="#ffff00"/>
  <rect id="7ed7998a31814579971a3b818a4b899e-oa-15" height="27.05882" width="95.29412" y="542.70586" x="654.41176" stroke="#2D2D2D" fill="#ffff00"/>
  <rect id="7ed7998a31814579971a3b818a4b899e-oa-16" height="36.47059" width="88.23529" y="186.23527" x="459.11765" stroke="#2D2D2D" fill="#ffff00"/>
  <rect id="7ed7998a31814579971a3b818a4b899e-oa-17" height="27.05882" width="83.52941" y="189.76468" x="326.17647" stroke="#2D2D2D" fill="#ffff00"/>
  <rect id="7ed7998a31814579971a3b818a4b899e-oa-18" height="41.17647" width="274.11765" y="70.94115" x="129.70588" stroke="#2D2D2D" fill="#ffff00"/>
 </g>
</svg>