<svg height="505" width="652" xmlns="http://www.w3.org/2000/svg">
 <!-- Created with Image Occlusion Enhanced -->
 <g>
  <title>Labels</title>
 </g>
 <g>
  <title>Masks</title>
  <rect fill="#FFEBA2" height="15.47619" id="7f5e215848444e6e8b388650031fb275-oa-1" stroke="#2D2D2D" width="326.19048" x="78.95239" y="39.04759"/>
  <rect fill="#FFEBA2" height="11.90476" id="7f5e215848444e6e8b388650031fb275-oa-2" stroke="#2D2D2D" width="120.2381" x="134.90477" y="62.85712"/>
  <rect fill="#FFEBA2" height="14.28571" id="7f5e215848444e6e8b388650031fb275-oa-3" stroke="#2D2D2D" width="129.76191" x="128.95239" y="81.90474"/>
  <rect fill="#FFEBA2" height="26.19048" id="7f5e215848444e6e8b388650031fb275-oa-4" stroke="#2D2D2D" width="333.33334" x="134.90477" y="99.76188"/>
  <rect fill="#FFEBA2" height="17.85714" id="7f5e215848444e6e8b388650031fb275-oa-5" stroke="#2D2D2D" width="225" x="126.57144" y="125.95236"/>
  <rect fill="#FFEBA2" height="10.71429" id="7f5e215848444e6e8b388650031fb275-oa-6" stroke="#2D2D2D" width="334.52381" x="74.19049" y="149.76188"/>
  <rect fill="#FFEBA2" height="16.66667" id="7f5e215848444e6e8b388650031fb275-oa-7" stroke="#2D2D2D" width="157.14286" x="124.19049" y="169.99998"/>
  <rect fill="#FFEBA2" height="19.04762" id="7f5e215848444e6e8b388650031fb275-oa-8" stroke="#2D2D2D" width="254.76191" x="125.38096" y="191.42855"/>
  <rect fill="#FFEBA2" height="17.85714" id="7f5e215848444e6e8b388650031fb275-oa-9" stroke="#2D2D2D" width="188.09524" x="127.76192" y="210.47617"/>
  <rect fill="#FFEBA2" height="19.04762" id="7f5e215848444e6e8b388650031fb275-oa-10" stroke="#2D2D2D" width="102.38095" x="125.38096" y="233.09522"/>
  <rect fill="#FFEBA2" height="14.28571" id="7f5e215848444e6e8b388650031fb275-oa-11" stroke="#2D2D2D" width="223.80953" x="73.00001" y="256.90474"/>
  <rect fill="#FFEBA2" height="22.61905" id="7f5e215848444e6e8b388650031fb275-oa-12" stroke="#2D2D2D" width="380.95239" x="126.57144" y="278.33331"/>
  <rect fill="#FFEBA2" height="16.66667" id="7f5e215848444e6e8b388650031fb275-oa-13" stroke="#2D2D2D" width="400.00001" x="124.19049" y="300.95236"/>
  <rect fill="#FFEBA2" height="36.90476" id="7f5e215848444e6e8b388650031fb275-oa-14" stroke="#2D2D2D" width="520.2381" x="115.85715" y="319.99998"/>
  <rect fill="#FFEBA2" height="14.28571" id="7f5e215848444e6e8b388650031fb275-oa-15" stroke="#2D2D2D" width="317.85715" x="130.14287" y="365.23807"/>
  <rect fill="#FFEBA2" height="15.47619" id="7f5e215848444e6e8b388650031fb275-oa-16" stroke="#2D2D2D" width="233.33334" x="53.95239" y="386.66665"/>
  <rect fill="#FFEBA2" height="11.90476" id="7f5e215848444e6e8b388650031fb275-oa-17" stroke="#2D2D2D" width="271.42858" x="128.95239" y="410.47617"/>
  <rect fill="#FFEBA2" height="14.28571" id="7f5e215848444e6e8b388650031fb275-oa-18" stroke="#2D2D2D" width="221.42857" x="117.04763" y="430.71427"/>
  <rect fill="#FFEBA2" height="15.47619" id="7f5e215848444e6e8b388650031fb275-oa-19" stroke="#2D2D2D" width="57.14286" x="125.38096" y="450.95236"/>
  <rect fill="#FFEBA2" height="26.19048" id="7f5e215848444e6e8b388650031fb275-oa-20" stroke="#2D2D2D" stroke-dasharray="null" stroke-linecap="null" stroke-linejoin="null" width="157.14286" x="124.19049" y="466.42855"/>
 </g>
</svg>