<svg xmlns="http://www.w3.org/2000/svg" width="606" height="466">
 <!-- Created with Image Occlusion Enhanced -->
 <g>
  <title>Labels</title>
 </g>
 <g>
  <title>Masks</title>
  <rect id="8341e103f41e46cbb1ccd95b8dd8c9ec-oa-1" height="32.55814" width="388.37211" y="50.27904" x="7.95352" stroke="#2D2D2D" fill="#FFEBA2"/>
  <rect id="8341e103f41e46cbb1ccd95b8dd8c9ec-oa-2" height="26.74419" width="98.83721" y="116.55812" x="54.46515" stroke="#2D2D2D" fill="#FFEBA2"/>
  <rect id="8341e103f41e46cbb1ccd95b8dd8c9ec-oa-3" height="34.88372" width="474.41863" y="151.44184" x="63.76748" stroke="#2D2D2D" fill="#FFEBA2"/>
  <rect id="8341e103f41e46cbb1ccd95b8dd8c9ec-oa-4" height="27.90698" width="167.44187" y="195.62789" x="31.20934" stroke="#2D2D2D" fill="#FFEBA2"/>
  <rect id="8341e103f41e46cbb1ccd95b8dd8c9ec-oa-5" height="24.41861" width="141.86047" y="225.86045" x="228.88376" stroke="#2D2D2D" fill="#FFEBA2"/>
  <rect id="8341e103f41e46cbb1ccd95b8dd8c9ec-oa-6" height="20.93023" width="176.7442" y="235.16277" x="380.04656" stroke="#2D2D2D" fill="#FFEBA2"/>
  <rect id="8341e103f41e46cbb1ccd95b8dd8c9ec-oa-7" height="22.09302" width="122.09303" y="252.60464" x="55.62794" stroke="#2D2D2D" fill="#FFEBA2"/>
  <rect id="8341e103f41e46cbb1ccd95b8dd8c9ec-oa-8" height="27.90698" width="210.46513" y="309.58138" x="37.02329" stroke="#2D2D2D" fill="#FFEBA2"/>
  <rect id="8341e103f41e46cbb1ccd95b8dd8c9ec-oa-9" height="20.93023" width="88.3721" y="342.13952" x="59.11631" stroke="#2D2D2D" fill="#FFEBA2"/>
  <rect id="8341e103f41e46cbb1ccd95b8dd8c9ec-oa-10" height="18.60465" width="103.48838" y="343.30231" x="155.62795" stroke="#2D2D2D" fill="#FFEBA2"/>
  <rect id="8341e103f41e46cbb1ccd95b8dd8c9ec-oa-11" height="31.39535" width="97.67442" y="340.97673" x="382.37214" stroke="#2D2D2D" fill="#ff0000"/>
  <rect id="8341e103f41e46cbb1ccd95b8dd8c9ec-oa-12" height="24.41861" width="84.88373" y="397.95348" x="62.60469" stroke="#2D2D2D" fill="#ff0000"/>
  <rect id="8341e103f41e46cbb1ccd95b8dd8c9ec-oa-13" height="22.09302" width="173.25582" y="399.11627" x="163.76748" stroke="#2D2D2D" fill="#ff0000"/>
  <rect id="8341e103f41e46cbb1ccd95b8dd8c9ec-oa-14" height="31.39535" width="143.02326" y="394.46511" x="349.814" stroke="#2D2D2D" fill="#ff0000"/>
  <rect id="8341e103f41e46cbb1ccd95b8dd8c9ec-oa-15" height="20.93023" width="66.27907" y="423.53488" x="64.93027" stroke="#2D2D2D" fill="#ff0000"/>
  <rect id="8341e103f41e46cbb1ccd95b8dd8c9ec-oa-16" height="15.11628" width="123.25582" y="429.34883" x="135.8605" stroke="#2D2D2D" fill="#ff0000"/>
  <rect id="8341e103f41e46cbb1ccd95b8dd8c9ec-oa-17" height="32.55814" width="117.44187" y="368.88371" x="132.37213" stroke="#2D2D2D" fill="#ff0000"/>
 </g>
</svg>