<svg height="523" width="764" xmlns="http://www.w3.org/2000/svg">
 <!-- Created with Image Occlusion Enhanced -->
 <g>
  <title>Labels</title>
 </g>
 <g>
  <title>Masks</title>
  <rect fill="#FFEBA2" height="28.42105" id="937dcf3d35e84aedad894b7a7d6d8f0a-oa-1" stroke="#2D2D2D" width="153.68421" x="19.15791" y="108.57894"/>
  <rect fill="#FFEBA2" height="24.21053" id="937dcf3d35e84aedad894b7a7d6d8f0a-oa-2" stroke="#2D2D2D" width="89.47369" x="78.10528" y="145.42104"/>
  <rect fill="#FFEBA2" height="24.21053" id="937dcf3d35e84aedad894b7a7d6d8f0a-oa-3" stroke="#2D2D2D" width="83.1579" x="166.52633" y="145.42104"/>
  <rect fill="#FFEBA2" height="24.21053" id="937dcf3d35e84aedad894b7a7d6d8f0a-oa-4" stroke="#2D2D2D" width="98.94737" x="84.42107" y="171.73683"/>
  <rect fill="#FFEBA2" height="21.05263" id="937dcf3d35e84aedad894b7a7d6d8f0a-oa-5" stroke="#2D2D2D" width="117.89474" x="266.52633" y="140.15788"/>
  <rect fill="#FFEBA2" height="26.31579" id="937dcf3d35e84aedad894b7a7d6d8f0a-oa-6" stroke="#2D2D2D" width="130.52632" x="368.6316" y="155.94736"/>
  <rect fill="#FFEBA2" height="49.47369" id="937dcf3d35e84aedad894b7a7d6d8f0a-oa-7" stroke="#2D2D2D" width="77.89474" x="405.4737" y="310.6842"/>
  <rect fill="#FFEBA2" height="20" id="937dcf3d35e84aedad894b7a7d6d8f0a-oa-8" stroke="#2D2D2D" width="78.94737" x="408.6316" y="401.21052"/>
  <rect fill="#FFEBA2" height="22.10526" id="937dcf3d35e84aedad894b7a7d6d8f0a-oa-9" stroke="#2D2D2D" width="105.26316" x="262.31581" y="349.63157"/>
  <rect fill="#FFEBA2" height="49.47369" id="937dcf3d35e84aedad894b7a7d6d8f0a-oa-10" stroke="#2D2D2D" width="89.47369" x="234.94739" y="302.26315"/>
  <rect fill="#FFEBA2" height="21.05263" id="937dcf3d35e84aedad894b7a7d6d8f0a-oa-11" stroke="#2D2D2D" width="102.10526" x="229.68423" y="234.89473"/>
  <rect fill="#FFEBA2" height="22.10526" id="937dcf3d35e84aedad894b7a7d6d8f0a-oa-12" stroke="#2D2D2D" width="77.89474" x="253.89475" y="266.47367"/>
  <rect fill="#FFEBA2" height="31.57895" id="937dcf3d35e84aedad894b7a7d6d8f0a-oa-13" stroke="#2D2D2D" width="109.47369" x="223.36844" y="201.21052"/>
  <rect fill="#FFEBA2" height="15.78947" id="937dcf3d35e84aedad894b7a7d6d8f0a-oa-14" stroke="#2D2D2D" width="72.63158" x="-16.63157" y="285.42104"/>
  <rect fill="#FFEBA2" height="33.68421" id="937dcf3d35e84aedad894b7a7d6d8f0a-oa-15" stroke="#2D2D2D" width="87.36842" x="-2.94736" y="341.21052"/>
  <rect fill="#FFEBA2" height="31.57895" id="937dcf3d35e84aedad894b7a7d6d8f0a-oa-16" stroke="#2D2D2D" width="98.94737" x="42.3158" y="464.36841"/>
  <rect fill="#FFEBA2" height="23.1579" id="937dcf3d35e84aedad894b7a7d6d8f0a-oa-17" stroke="#2D2D2D" width="112.63158" x="185.4737" y="434.89473"/>
  <rect fill="#FFEBA2" height="26.31579" id="937dcf3d35e84aedad894b7a7d6d8f0a-oa-18" stroke="#2D2D2D" width="93.68421" x="219.15791" y="369.63157"/>
  <rect fill="#FFEBA2" height="32.63158" id="937dcf3d35e84aedad894b7a7d6d8f0a-oa-19" stroke="#2D2D2D" width="88.42105" x="633.89476" y="352.78947"/>
  <rect fill="#FFEBA2" height="24.21053" id="937dcf3d35e84aedad894b7a7d6d8f0a-oa-20" stroke="#2D2D2D" width="88.42105" x="437.05265" y="133.84209"/>
  <rect fill="#FFEBA2" height="14.73684" id="937dcf3d35e84aedad894b7a7d6d8f0a-oa-21" stroke="#2D2D2D" width="125.26316" x="527.57897" y="140.15788"/>
  <rect fill="#FFEBA2" height="16.84211" id="937dcf3d35e84aedad894b7a7d6d8f0a-oa-22" stroke="#2D2D2D" width="123.1579" x="600.21055" y="100.15788"/>
  <rect fill="#FFEBA2" height="20" id="937dcf3d35e84aedad894b7a7d6d8f0a-oa-23" stroke="#2D2D2D" width="63.1579" x="527.57897" y="168.57894"/>
 </g>
</svg>