<svg height="1200" width="868" xmlns="http://www.w3.org/2000/svg">
 <!-- Created with Image Occlusion Enhanced -->
 <g>
  <title>Labels</title>
 </g>
 <g>
  <title>Masks</title>
  <rect fill="#FFEBA2" height="23.68421" id="97f124cba299451eb9a2c3e2345d9804-oa-1" stroke="#2D2D2D" width="473.68423" x="338.41451" y="138.15783"/>
  <rect fill="#FFEBA2" height="11.84211" id="97f124cba299451eb9a2c3e2345d9804-oa-2" stroke="#2D2D2D" width="367.10528" x="344.33557" y="173.68415"/>
  <rect fill="#FFEBA2" height="31.08553" id="97f124cba299451eb9a2c3e2345d9804-oa-3" stroke="#2D2D2D" width="365.62501" x="338.41451" y="175.16441"/>
  <rect fill="#FFEBA2" height="16.2829" id="97f124cba299451eb9a2c3e2345d9804-oa-4" stroke="#2D2D2D" width="390.78949" x="342.8553" y="213.65126"/>
  <rect fill="#FFEBA2" height="37.00658" id="97f124cba299451eb9a2c3e2345d9804-oa-5" stroke="#2D2D2D" width="368.58554" x="336.93425" y="240.296"/>
  <rect fill="#FFEBA2" height="23.68421" id="97f124cba299451eb9a2c3e2345d9804-oa-6" stroke="#2D2D2D" width="361.18422" x="336.93425" y="293.58547"/>
  <rect fill="#FFEBA2" height="94.73685" id="97f124cba299451eb9a2c3e2345d9804-oa-7" stroke="#2D2D2D" width="410.03291" x="345.81583" y="320.23021"/>
  <rect fill="#FFEBA2" height="19.24342" id="97f124cba299451eb9a2c3e2345d9804-oa-8" stroke="#2D2D2D" width="356.74343" x="348.77636" y="426.80916"/>
  <rect fill="#FFEBA2" height="38.48684" id="97f124cba299451eb9a2c3e2345d9804-oa-9" stroke="#2D2D2D" width="392.26975" x="341.37504" y="459.37495"/>
  <rect fill="#FFEBA2" height="29.60526" id="97f124cba299451eb9a2c3e2345d9804-oa-10" stroke="#2D2D2D" width="479.60528" x="338.41451" y="514.14469"/>
  <rect fill="#FFEBA2" height="16.2829" id="97f124cba299451eb9a2c3e2345d9804-oa-11" stroke="#2D2D2D" width="319.73685" x="342.8553" y="555.59206"/>
  <rect fill="#FFEBA2" height="23.68421" id="97f124cba299451eb9a2c3e2345d9804-oa-12" stroke="#2D2D2D" width="44.4079" x="342.8553" y="577.79601"/>
  <rect fill="#FFEBA2" height="31.08553" id="97f124cba299451eb9a2c3e2345d9804-oa-13" stroke="#2D2D2D" width="404.11186" x="341.37504" y="601.48022"/>
  <rect fill="#FFEBA2" height="19.24342" id="97f124cba299451eb9a2c3e2345d9804-oa-14" stroke="#2D2D2D" width="338.98027" x="341.37504" y="637.00654"/>
  <rect fill="#FFEBA2" height="11.84211" id="97f124cba299451eb9a2c3e2345d9804-oa-15" stroke="#2D2D2D" width="330.0987" x="339.89478" y="671.05259"/>
  <rect fill="#FFEBA2" height="44.4079" id="97f124cba299451eb9a2c3e2345d9804-oa-16" stroke="#2D2D2D" width="402.63159" x="353.21715" y="694.7368"/>
  <rect fill="#FFEBA2" height="20.72368" id="97f124cba299451eb9a2c3e2345d9804-oa-17" stroke="#2D2D2D" width="310.85527" x="370.98031" y="746.54601"/>
  <rect fill="#FFEBA2" height="37.00658" id="97f124cba299451eb9a2c3e2345d9804-oa-18" stroke="#2D2D2D" width="464.80265" x="372.46057" y="780.59207"/>
  <rect fill="#FFEBA2" height="85.85527" id="97f124cba299451eb9a2c3e2345d9804-oa-19" stroke="#2D2D2D" width="358.2237" x="368.01978" y="820.55917"/>
  <rect fill="#FFEBA2" height="45.88816" id="97f124cba299451eb9a2c3e2345d9804-oa-20" stroke="#2D2D2D" width="433.71712" x="376.90136" y="910.85523"/>
  <rect fill="#FFEBA2" height="42.92763" id="97f124cba299451eb9a2c3e2345d9804-oa-21" stroke="#2D2D2D" width="350.82238" x="347.29609" y="956.74339"/>
  <rect fill="#FFEBA2" height="94.73685" id="97f124cba299451eb9a2c3e2345d9804-oa-22" stroke="#2D2D2D" width="426.3158" x="350.25662" y="1001.15128"/>
 </g>
</svg>