<svg xmlns="http://www.w3.org/2000/svg" width="1164" height="564">
 <!-- Created with Image Occlusion Enhanced -->
 <g>
  <title>Labels</title>
 </g>
 <g>
  <title>Masks</title>
  <rect id="985cad047dc74ad39f3d38a297114901-oa-1" height="22.72727" width="101.13637" y="117.81816" x="32.59097" stroke="#2D2D2D" fill="#ffff00"/>
  <rect id="985cad047dc74ad39f3d38a297114901-oa-2" height="26.13637" width="81.81819" y="141.6818" x="22.3637" stroke="#2D2D2D" fill="#ffff00"/>
  <rect id="985cad047dc74ad39f3d38a297114901-oa-3" height="30.68182" width="265.9091" y="200.77271" x="8.72733" stroke="#2D2D2D" fill="#ffff00"/>
  <rect id="985cad047dc74ad39f3d38a297114901-oa-4" height="27.27273" width="142.04546" y="256.45453" x="34.8637" stroke="#2D2D2D" fill="#ffff00"/>
  <rect id="985cad047dc74ad39f3d38a297114901-oa-5" height="29.54546" width="136.36364" y="278.04544" x="75.77279" stroke="#2D2D2D" fill="#ffff00"/>
  <rect id="985cad047dc74ad39f3d38a297114901-oa-6" height="26.13637" width="211.36365" y="310.99999" x="47.3637" stroke="#2D2D2D" fill="#ffff00"/>
  <rect id="985cad047dc74ad39f3d38a297114901-oa-7" height="25" width="67.04546" y="265.54544" x="447.36372" stroke="#2D2D2D" fill="#ffff00"/>
  <rect id="985cad047dc74ad39f3d38a297114901-oa-8" height="13.63636" width="38.63637" y="237.13635" x="255.31826" stroke="#2D2D2D" fill="#ffff00"/>
  <rect id="985cad047dc74ad39f3d38a297114901-oa-9" height="11.36364" width="52.27273" y="239.40908" x="451.90918" stroke="#2D2D2D" fill="#ffff00"/>
  <rect id="985cad047dc74ad39f3d38a297114901-oa-10" height="30.68182" width="70.45455" y="355.31817" x="458.72736" stroke="#2D2D2D" fill="#ffff00"/>
  <rect id="985cad047dc74ad39f3d38a297114901-oa-11" height="26.13637" width="56.81818" y="340.54545" x="229.18189" stroke="#2D2D2D" fill="#ffff00"/>
  <rect id="985cad047dc74ad39f3d38a297114901-oa-12" height="23.86364" width="40.90909" y="375.77272" x="250.7728" stroke="#2D2D2D" fill="#ffff00"/>
  <rect id="985cad047dc74ad39f3d38a297114901-oa-13" height="12.5" width="45.45455" y="441.68181" x="476.90918" stroke="#2D2D2D" fill="#ffff00"/>
  <rect id="985cad047dc74ad39f3d38a297114901-oa-14" height="15.90909" width="50" y="425.77272" x="478.04554" stroke="#2D2D2D" fill="#ffff00"/>
  <rect id="985cad047dc74ad39f3d38a297114901-oa-15" height="7.95455" width="27.27273" y="464.40909" x="478.04554" stroke="#2D2D2D" fill="#ffff00"/>
 </g>
</svg>