<svg height="590" width="680" xmlns="http://www.w3.org/2000/svg">
 <!-- Created with Image Occlusion Enhanced -->
 <g>
  <title>Labels</title>
 </g>
 <g>
  <title>Masks</title>
  <rect fill="#FFEBA2" height="39.28571" id="a23314e8a6954c9894187954bca22297-oa-1" stroke="#2D2D2D" width="110.71428" x="48.57141" y="29.04761"/>
  <rect fill="#FFEBA2" height="16.66667" id="a23314e8a6954c9894187954bca22297-oa-2" stroke="#2D2D2D" width="125" x="194.99998" y="4.04761"/>
  <rect fill="#FFEBA2" height="13.09524" id="a23314e8a6954c9894187954bca22297-oa-3" stroke="#2D2D2D" width="98.80952" x="450.95236" y="9.99999"/>
  <rect fill="#FFEBA2" height="42.85714" id="a23314e8a6954c9894187954bca22297-oa-4" stroke="#2D2D2D" width="132.14286" x="567.61902" y="-4.28572"/>
  <rect fill="#FFEBA2" height="26.19048" id="a23314e8a6954c9894187954bca22297-oa-5" stroke="#2D2D2D" width="115.47619" x="552.14283" y="45.71428"/>
  <rect fill="#FFEBA2" height="16.66667" id="a23314e8a6954c9894187954bca22297-oa-6" stroke="#2D2D2D" width="88.09524" x="549.76188" y="88.57142"/>
  <rect fill="#FFEBA2" height="25" id="a23314e8a6954c9894187954bca22297-oa-7" stroke="#2D2D2D" width="119.04762" x="523.5714" y="123.09523"/>
  <rect fill="#FFEBA2" height="32.14286" id="a23314e8a6954c9894187954bca22297-oa-8" stroke="#2D2D2D" width="155.95238" x="466.42855" y="183.80951"/>
  <rect fill="#FFEBA2" height="32.14286" id="a23314e8a6954c9894187954bca22297-oa-9" stroke="#2D2D2D" width="144.04762" x="479.52379" y="231.42856"/>
  <rect fill="#FFEBA2" height="22.61905" id="a23314e8a6954c9894187954bca22297-oa-10" stroke="#2D2D2D" width="108.33333" x="508.09521" y="294.5238"/>
  <rect fill="#FFEBA2" height="33.33333" id="a23314e8a6954c9894187954bca22297-oa-11" stroke="#2D2D2D" width="108.33333" x="518.8095" y="337.38094"/>
  <rect fill="#FFEBA2" height="29.7619" id="a23314e8a6954c9894187954bca22297-oa-12" stroke="#2D2D2D" width="79.7619" x="550.95236" y="400.47618"/>
  <rect fill="#FFEBA2" height="13.09524" id="a23314e8a6954c9894187954bca22297-oa-13" stroke="#2D2D2D" width="66.66667" x="178.33331" y="246.90475"/>
  <rect fill="#FFEBA2" height="44.04762" id="a23314e8a6954c9894187954bca22297-oa-14" stroke="#2D2D2D" width="126.19047" x="147.38093" y="188.57142"/>
  <rect fill="#FFEBA2" height="10.71429" id="a23314e8a6954c9894187954bca22297-oa-15" stroke="#2D2D2D" width="50" x="171.19046" y="164.7619"/>
  <rect fill="#FFEBA2" height="71.42857" id="a23314e8a6954c9894187954bca22297-oa-16" stroke="#2D2D2D" width="142.85714" x="65.23808" y="319.5238"/>
  <rect fill="#FFEBA2" height="19.04762" id="a23314e8a6954c9894187954bca22297-oa-17" stroke="#2D2D2D" width="96.42857" x="73.57141" y="413.57142"/>
  <rect fill="#FFEBA2" height="17.85714" id="a23314e8a6954c9894187954bca22297-oa-18" stroke="#2D2D2D" width="110.71428" x="52.14284" y="455.23808"/>
 </g>
</svg>