<svg height="479" width="638" xmlns="http://www.w3.org/2000/svg">
 <!-- Created with Image Occlusion Enhanced -->
 <g>
  <title>Labels</title>
 </g>
 <g>
  <title>Masks</title>
  <rect fill="#FFEBA2" height="17.44186" id="b1e3d4a3272e422fbe8cde463fa37734-oa-1" stroke="#2D2D2D" width="105.81395" x="56.18606" y="88.44185"/>
  <rect fill="#FFEBA2" height="17.44186" id="b1e3d4a3272e422fbe8cde463fa37734-oa-2" stroke="#2D2D2D" width="68.60465" x="85.25582" y="120.99999"/>
  <rect fill="#FFEBA2" height="11.62791" id="b1e3d4a3272e422fbe8cde463fa37734-oa-3" stroke="#2D2D2D" width="46.51163" x="106.18606" y="151.23255"/>
  <rect fill="#FFEBA2" height="16.27907" id="b1e3d4a3272e422fbe8cde463fa37734-oa-4" stroke="#2D2D2D" width="95.34884" x="58.51164" y="176.81395"/>
  <rect fill="#FFEBA2" height="17.44186" id="b1e3d4a3272e422fbe8cde463fa37734-oa-5" stroke="#2D2D2D" width="83.72093" x="74.79071" y="204.72093"/>
  <rect fill="#FFEBA2" height="18.60465" id="b1e3d4a3272e422fbe8cde463fa37734-oa-6" stroke="#2D2D2D" width="101.16279" x="59.67443" y="234.95348"/>
  <rect fill="#FFEBA2" height="15.11628" id="b1e3d4a3272e422fbe8cde463fa37734-oa-7" stroke="#2D2D2D" width="52.32558" x="109.67443" y="261.69767"/>
  <rect fill="#FFEBA2" height="22.09302" id="b1e3d4a3272e422fbe8cde463fa37734-oa-8" stroke="#2D2D2D" width="106.97675" x="50.3721" y="300.06976"/>
  <rect fill="#FFEBA2" height="22.09302" id="b1e3d4a3272e422fbe8cde463fa37734-oa-9" stroke="#2D2D2D" width="73.25581" x="98.04652" y="315.18604"/>
  <rect fill="#FFEBA2" height="26.74419" id="b1e3d4a3272e422fbe8cde463fa37734-oa-10" stroke="#2D2D2D" width="40.69767" x="124.79071" y="347.74418"/>
  <rect fill="#FFEBA2" height="23.25581" id="b1e3d4a3272e422fbe8cde463fa37734-oa-11" stroke="#2D2D2D" width="209.30233" x="0.3721" y="375.65116"/>
  <rect fill="#FFEBA2" height="19.76744" id="b1e3d4a3272e422fbe8cde463fa37734-oa-12" stroke="#2D2D2D" width="75.5814" x="142.23257" y="402.39535"/>
  <rect fill="#FFEBA2" height="20.93023" id="b1e3d4a3272e422fbe8cde463fa37734-oa-13" stroke="#2D2D2D" width="93.02326" x="480.60467" y="395.4186"/>
  <rect fill="#FFEBA2" height="11.62791" id="b1e3d4a3272e422fbe8cde463fa37734-oa-14" stroke="#2D2D2D" width="125.5814" x="477.11629" y="375.65116"/>
  <rect fill="#FFEBA2" height="11.62791" id="b1e3d4a3272e422fbe8cde463fa37734-oa-15" stroke="#2D2D2D" width="119.76744" x="479.44188" y="355.88372"/>
  <rect fill="#FFEBA2" height="16.27907" id="b1e3d4a3272e422fbe8cde463fa37734-oa-16" stroke="#2D2D2D" width="125.5814" x="479.44188" y="329.13953"/>
  <rect fill="#FFEBA2" height="27.90698" id="b1e3d4a3272e422fbe8cde463fa37734-oa-17" stroke="#2D2D2D" width="113.95349" x="475.9535" y="294.25581"/>
  <rect fill="#FFEBA2" height="10.46512" id="b1e3d4a3272e422fbe8cde463fa37734-oa-18" stroke="#2D2D2D" width="98.83721" x="464.3256" y="280.30232"/>
  <rect fill="#FFEBA2" height="10.46512" id="b1e3d4a3272e422fbe8cde463fa37734-oa-19" stroke="#2D2D2D" width="153.48837" x="479.44188" y="259.37209"/>
  <rect fill="#FFEBA2" height="22.09302" id="b1e3d4a3272e422fbe8cde463fa37734-oa-20" stroke="#2D2D2D" width="120.93023" x="475.9535" y="227.97674"/>
  <rect fill="#FFEBA2" height="8.13953" id="b1e3d4a3272e422fbe8cde463fa37734-oa-21" stroke="#2D2D2D" width="154.65116" x="475.9535" y="205.88372"/>
  <rect fill="#FFEBA2" height="18.60465" id="b1e3d4a3272e422fbe8cde463fa37734-oa-22" stroke="#2D2D2D" width="111.62791" x="477.11629" y="179.13953"/>
  <rect fill="#FFEBA2" height="12.7907" id="b1e3d4a3272e422fbe8cde463fa37734-oa-23" stroke="#2D2D2D" width="110.46512" x="478.27908" y="160.53488"/>
  <rect fill="#FFEBA2" height="19.76744" id="b1e3d4a3272e422fbe8cde463fa37734-oa-24" stroke="#2D2D2D" width="124.41861" x="473.62792" y="136.11627"/>
  <rect fill="#FFEBA2" height="9.30233" id="b1e3d4a3272e422fbe8cde463fa37734-oa-25" stroke="#2D2D2D" width="122.09302" x="475.9535" y="119.8372"/>
  <rect fill="#FFEBA2" height="13.95349" id="b1e3d4a3272e422fbe8cde463fa37734-oa-26" stroke="#2D2D2D" width="68.60465" x="477.11629" y="96.58139"/>
  <rect fill="#FFEBA2" height="6.97674" id="b1e3d4a3272e422fbe8cde463fa37734-oa-27" stroke="#2D2D2D" width="124.41861" x="477.11629" y="76.81395"/>
  <rect fill="#FFEBA2" height="17.44186" id="b1e3d4a3272e422fbe8cde463fa37734-oa-28" stroke="#2D2D2D" width="82.55814" x="480.60467" y="52.39534"/>
  <rect fill="#FFEBA2" height="18.60465" id="b1e3d4a3272e422fbe8cde463fa37734-oa-29" stroke="#2D2D2D" width="58.13954" x="478.27908" y="32.6279"/>
 </g>
</svg>