<svg xmlns="http://www.w3.org/2000/svg" width="676.9999999999999" height="509">
 <!-- Created with Image Occlusion Enhanced -->
 <g>
  <title>Labels</title>
 </g>
 <g>
  <title>Masks</title>
  <rect id="b27ecb78c79645ecb19b757a534c4cad-oa-1" height="37.66234" width="164.93507" y="32.55845" x="89.2338" stroke="#2D2D2D" fill="#FFEBA2"/>
  <rect id="b27ecb78c79645ecb19b757a534c4cad-oa-2" height="54.54546" width="171.42858" y="126.06494" x="87.9351" stroke="#2D2D2D" fill="#FFEBA2"/>
  <rect id="b27ecb78c79645ecb19b757a534c4cad-oa-3" height="41.55844" width="183.11689" y="215.67534" x="91.8312" stroke="#2D2D2D" fill="#FFEBA2"/>
  <rect id="b27ecb78c79645ecb19b757a534c4cad-oa-4" height="41.55844" width="174.02598" y="271.5195" x="86.6364" stroke="#2D2D2D" fill="#FFEBA2"/>
  <rect id="b27ecb78c79645ecb19b757a534c4cad-oa-5" height="29.87013" width="145.45455" y="359.83119" x="87.9351" stroke="#2D2D2D" fill="#FFEBA2"/>
  <rect id="b27ecb78c79645ecb19b757a534c4cad-oa-6" height="50.64935" width="163.63637" y="435.15587" x="90.5325" stroke="#2D2D2D" fill="#FFEBA2"/>
  <rect id="b27ecb78c79645ecb19b757a534c4cad-oa-7" height="31.16883" width="105.19481" y="437.75327" x="276.24679" stroke="#2D2D2D" fill="#FFEBA2"/>
  <rect id="b27ecb78c79645ecb19b757a534c4cad-oa-8" height="28.57143" width="137.66234" y="479.31171" x="272.35069" stroke="#2D2D2D" fill="#FFEBA2"/>
  <rect id="b27ecb78c79645ecb19b757a534c4cad-oa-9" height="55.84416" width="175.32468" y="436.45457" x="452.87018" stroke="#2D2D2D" fill="#FFEBA2"/>
  <rect id="b27ecb78c79645ecb19b757a534c4cad-oa-10" height="44.15585" width="154.54546" y="359.83119" x="455.46758" stroke="#2D2D2D" fill="#FFEBA2"/>
  <rect id="b27ecb78c79645ecb19b757a534c4cad-oa-11" height="22.07792" width="116.88312" y="272.8182" x="450.27277" stroke="#2D2D2D" fill="#FFEBA2"/>
  <rect id="b27ecb78c79645ecb19b757a534c4cad-oa-12" height="48.05195" width="174.02598" y="216.97404" x="452.87018" stroke="#2D2D2D" fill="#FFEBA2"/>
  <rect id="b27ecb78c79645ecb19b757a534c4cad-oa-13" height="50.64935" width="175.32468" y="122.16884" x="451.57148" stroke="#2D2D2D" fill="#FFEBA2"/>
  <rect id="b27ecb78c79645ecb19b757a534c4cad-oa-14" height="36.36364" width="161.03897" y="29.96104" x="450.27277" stroke="#2D2D2D" fill="#FFEBA2"/>
  <rect id="b27ecb78c79645ecb19b757a534c4cad-oa-15" height="28.57143" width="103.89611" y="31.25975" x="272.35069" stroke="#2D2D2D" fill="#FFEBA2"/>
  <rect id="b27ecb78c79645ecb19b757a534c4cad-oa-16" height="32.46753" width="100" y="68.92208" x="274.94809" stroke="#2D2D2D" fill="#FFEBA2"/>
  <rect id="b27ecb78c79645ecb19b757a534c4cad-oa-17" height="19.48052" width="106.49351" y="102.68832" x="280.1429" stroke="#2D2D2D" fill="#FFEBA2"/>
  <rect id="b27ecb78c79645ecb19b757a534c4cad-oa-18" height="16.88312" width="125.97403" y="124.76624" x="271.05199" stroke="#2D2D2D" fill="#FFEBA2"/>
  <rect id="b27ecb78c79645ecb19b757a534c4cad-oa-19" height="33.76624" width="167.53247" y="142.94806" x="267.15588" stroke="#2D2D2D" fill="#FFEBA2"/>
  <rect id="b27ecb78c79645ecb19b757a534c4cad-oa-20" height="31.16883" width="31.16883" y="181.9091" x="342.48056" stroke="#2D2D2D" fill="#FFEBA2"/>
  <rect id="b27ecb78c79645ecb19b757a534c4cad-oa-21" height="32.46753" width="159.74027" y="216.97404" x="277.54549" stroke="#2D2D2D" fill="#FFEBA2"/>
  <rect id="b27ecb78c79645ecb19b757a534c4cad-oa-22" height="32.46753" width="137.66234" y="274.1169" x="276.24679" stroke="#2D2D2D" fill="#FFEBA2"/>
  <rect id="b27ecb78c79645ecb19b757a534c4cad-oa-23" height="49.35065" width="168.83118" y="305.28573" x="271.05199" stroke="#2D2D2D" fill="#FFEBA2"/>
  <rect id="b27ecb78c79645ecb19b757a534c4cad-oa-24" height="51.94805" width="167.53247" y="365.02599" x="274.94809" stroke="#2D2D2D" fill="#FFEBA2"/>
 </g>
</svg>