<svg height="445" width="617" xmlns="http://www.w3.org/2000/svg">
 <!-- Created with Image Occlusion Enhanced -->
 <g>
  <title>Labels</title>
 </g>
 <g>
  <title>Masks</title>
  <rect fill="#FFEBA2" height="28.08989" id="b4d3ce6f260041c696841a635c040d5a-oa-1" stroke="#2D2D2D" width="117.97753" x="39.17976" y="28.03372"/>
  <rect fill="#FFEBA2" height="25.8427" id="b4d3ce6f260041c696841a635c040d5a-oa-2" stroke="#2D2D2D" width="69.66292" x="168.39325" y="28.03372"/>
  <rect fill="#FFEBA2" height="14.60674" id="b4d3ce6f260041c696841a635c040d5a-oa-3" stroke="#2D2D2D" width="410.11237" x="112.21347" y="56.12361"/>
  <rect fill="#FFEBA2" height="11.23596" id="b4d3ce6f260041c696841a635c040d5a-oa-4" stroke="#2D2D2D" width="250.56181" x="109.96628" y="84.2135"/>
  <rect fill="#FFEBA2" height="32.58427" id="b4d3ce6f260041c696841a635c040d5a-oa-5" stroke="#2D2D2D" width="498.87642" x="106.59549" y="98.82024"/>
  <rect fill="#FFEBA2" height="21.34832" id="b4d3ce6f260041c696841a635c040d5a-oa-6" stroke="#2D2D2D" width="70.78652" x="95.35954" y="144.88766"/>
  <rect fill="#FFEBA2" height="25.8427" id="b4d3ce6f260041c696841a635c040d5a-oa-7" stroke="#2D2D2D" width="64.04495" x="40.30335" y="141.51687"/>
  <rect fill="#FFEBA2" height="12.35955" id="b4d3ce6f260041c696841a635c040d5a-oa-8" stroke="#2D2D2D" width="203.37079" x="171.76403" y="146.01125"/>
  <rect fill="#FFEBA2" height="14.60674" id="b4d3ce6f260041c696841a635c040d5a-oa-9" stroke="#2D2D2D" width="287.64046" x="114.46066" y="193.20227"/>
  <rect fill="#FFEBA2" height="19.10112" id="b4d3ce6f260041c696841a635c040d5a-oa-10" stroke="#2D2D2D" width="144.94382" x="106.59549" y="212.30339"/>
  <rect fill="#FFEBA2" height="19.10112" id="b4d3ce6f260041c696841a635c040d5a-oa-11" stroke="#2D2D2D" width="317.97754" x="112.21347" y="234.7753"/>
  <rect fill="#FFEBA2" height="21.34832" id="b4d3ce6f260041c696841a635c040d5a-oa-12" stroke="#2D2D2D" width="341.57304" x="109.96628" y="281.96631"/>
  <rect fill="#FFEBA2" height="16.85393" id="b4d3ce6f260041c696841a635c040d5a-oa-13" stroke="#2D2D2D" width="126.9663" x="106.59549" y="307.80901"/>
  <rect fill="#FFEBA2" height="19.10112" id="b4d3ce6f260041c696841a635c040d5a-oa-14" stroke="#2D2D2D" width="111.23596" x="109.96628" y="330.28092"/>
  <rect fill="#FFEBA2" height="16.85393" id="b4d3ce6f260041c696841a635c040d5a-oa-15" stroke="#2D2D2D" width="120.22472" x="41.42695" y="357.24722"/>
  <rect fill="#FFEBA2" height="16.85393" id="b4d3ce6f260041c696841a635c040d5a-oa-16" stroke="#2D2D2D" width="111.23596" x="170.64044" y="353.87643"/>
  <rect fill="#FFEBA2" height="15.73034" id="b4d3ce6f260041c696841a635c040d5a-oa-17" stroke="#2D2D2D" width="214.60675" x="112.21347" y="372.97755"/>
  <rect fill="#FFEBA2" height="20.22472" id="b4d3ce6f260041c696841a635c040d5a-oa-18" stroke="#2D2D2D" width="208.98877" x="112.21347" y="398.82025"/>
  <rect fill="#FFEBA2" height="19.10112" id="b4d3ce6f260041c696841a635c040d5a-oa-19" stroke="#2D2D2D" width="288.76405" x="97.60673" y="419.04497"/>
 </g>
</svg>