<svg height="301" width="590" xmlns="http://www.w3.org/2000/svg">
 <!-- Created with Image Occlusion Enhanced -->
 <g>
  <title>Labels</title>
 </g>
 <g>
  <title>Masks</title>
  <rect fill="#FFEBA2" height="48.3871" id="baf1606c5c3745b5b6520db4c91637f5-oa-1" stroke="#2D2D2D" width="61.29032" x="416.4516" y="10.82797"/>
  <rect fill="#FFEBA2" height="16.12903" id="baf1606c5c3745b5b6520db4c91637f5-oa-2" stroke="#2D2D2D" width="86.02151" x="13.22578" y="87.17205"/>
  <rect fill="#FFEBA2" height="16.12903" id="baf1606c5c3745b5b6520db4c91637f5-oa-3" stroke="#2D2D2D" width="44.08602" x="13.22578" y="107.60216"/>
  <rect fill="#FFEBA2" height="8.60215" id="baf1606c5c3745b5b6520db4c91637f5-oa-4" stroke="#2D2D2D" width="40.86022" x="13.22578" y="138.78496"/>
  <rect fill="#FFEBA2" height="19.35484" id="baf1606c5c3745b5b6520db4c91637f5-oa-5" stroke="#2D2D2D" width="49.46237" x="16.45159" y="151.68818"/>
  <rect fill="#FFEBA2" height="19.35484" id="baf1606c5c3745b5b6520db4c91637f5-oa-6" stroke="#2D2D2D" width="73.11828" x="13.22578" y="186.09679"/>
  <rect fill="#FFEBA2" height="22.58065" id="baf1606c5c3745b5b6520db4c91637f5-oa-7" stroke="#2D2D2D" width="73.11828" x="15.37632" y="225.88173"/>
  <rect fill="#FFEBA2" height="21.50538" id="baf1606c5c3745b5b6520db4c91637f5-oa-8" stroke="#2D2D2D" width="44.08602" x="200.32256" y="207.60216"/>
  <rect fill="#FFEBA2" height="20.43011" id="baf1606c5c3745b5b6520db4c91637f5-oa-9" stroke="#2D2D2D" width="61.29032" x="207.84944" y="253.83872"/>
  <rect fill="#FFEBA2" height="23.65591" id="baf1606c5c3745b5b6520db4c91637f5-oa-10" stroke="#2D2D2D" width="46.23656" x="212.15052" y="152.76345"/>
  <rect fill="#FFEBA2" height="26.88172" id="baf1606c5c3745b5b6520db4c91637f5-oa-11" stroke="#2D2D2D" width="74.19355" x="198.17202" y="107.60216"/>
  <rect fill="#FFEBA2" height="24.73118" id="baf1606c5c3745b5b6520db4c91637f5-oa-12" stroke="#2D2D2D" width="30.10753" x="285.2688" y="137.70969"/>
  <rect fill="#FFEBA2" height="12.90323" id="baf1606c5c3745b5b6520db4c91637f5-oa-13" stroke="#2D2D2D" width="36.55914" x="293.87095" y="178.56991"/>
  <rect fill="#FFEBA2" height="16.12903" id="baf1606c5c3745b5b6520db4c91637f5-oa-14" stroke="#2D2D2D" width="66.66667" x="293.87095" y="236.63442"/>
  <rect fill="#FFEBA2" height="23.65591" id="baf1606c5c3745b5b6520db4c91637f5-oa-15" stroke="#2D2D2D" width="93.54839" x="483.11826" y="253.83872"/>
 </g>
</svg>