<svg height="255.00000000000003" width="533" xmlns="http://www.w3.org/2000/svg">
 <!-- Created with Image Occlusion Enhanced -->
 <g>
  <title>Labels</title>
 </g>
 <g>
  <title>Masks</title>
  <rect fill="#FFEBA2" height="18.4466" id="bb946160cae6475ea45b02c76ee1c41f-oa-1" stroke="#2D2D2D" width="46.60194" x="3.89321" y="24.61166"/>
  <rect fill="#FFEBA2" height="33.00971" id="bb946160cae6475ea45b02c76ee1c41f-oa-2" stroke="#2D2D2D" width="140.7767" x="5.83496" y="56.65049"/>
  <rect fill="#FFEBA2" height="15.53398" id="bb946160cae6475ea45b02c76ee1c41f-oa-3" stroke="#2D2D2D" width="100.97088" x="3.89321" y="96.45632"/>
  <rect fill="#FFEBA2" height="22.3301" id="bb946160cae6475ea45b02c76ee1c41f-oa-4" stroke="#2D2D2D" width="123.30097" x="5.83496" y="114.90292"/>
  <rect fill="#FFEBA2" height="22.3301" id="bb946160cae6475ea45b02c76ee1c41f-oa-5" stroke="#2D2D2D" width="66.99029" x="1.95146" y="149.85438"/>
  <rect fill="#FFEBA2" height="17.47573" id="bb946160cae6475ea45b02c76ee1c41f-oa-6" stroke="#2D2D2D" width="93.20389" x="7.77671" y="173.15535"/>
  <rect fill="#FFEBA2" height="16.50485" id="bb946160cae6475ea45b02c76ee1c41f-oa-7" stroke="#2D2D2D" width="66.01942" x="157.29127" y="174.12622"/>
  <rect fill="#FFEBA2" height="13.59223" id="bb946160cae6475ea45b02c76ee1c41f-oa-8" stroke="#2D2D2D" width="56.31068" x="160.2039" y="194.51457"/>
  <rect fill="#FFEBA2" height="31.06796" id="bb946160cae6475ea45b02c76ee1c41f-oa-9" stroke="#2D2D2D" width="366.01943" x="160.2039" y="209.07768"/>
  <rect fill="#FFEBA2" height="20.38835" id="bb946160cae6475ea45b02c76ee1c41f-oa-10" stroke="#2D2D2D" width="155.33981" x="154.37865" y="115.8738"/>
  <rect fill="#FFEBA2" height="16.50485" id="bb946160cae6475ea45b02c76ee1c41f-oa-11" stroke="#2D2D2D" width="155.33981" x="159.23302" y="151.79613"/>
  <rect fill="#FFEBA2" height="20.38835" id="bb946160cae6475ea45b02c76ee1c41f-oa-12" stroke="#2D2D2D" width="146.60195" x="154.37865" y="93.5437"/>
  <rect fill="#FFEBA2" height="25.24272" id="bb946160cae6475ea45b02c76ee1c41f-oa-13" stroke="#2D2D2D" width="119.41748" x="154.37865" y="19.75729"/>
  <rect fill="#FFEBA2" height="22.3301" id="bb946160cae6475ea45b02c76ee1c41f-oa-14" stroke="#2D2D2D" width="200" x="277.67963" y="20.72816"/>
  <rect fill="#FFEBA2" height="36.8932" id="bb946160cae6475ea45b02c76ee1c41f-oa-15" stroke="#2D2D2D" width="257.28156" x="245.64079" y="169.27185"/>
 </g>
</svg>