<svg height="283" width="464.99999999999994" xmlns="http://www.w3.org/2000/svg">
 <!-- Created with Image Occlusion Enhanced -->
 <g>
  <title>Labels</title>
 </g>
 <g>
  <title>Masks</title>
  <rect fill="#FFEBA2" height="12.71186" id="c6c9df40ed514b2d85f7136389ad1709-oa-1" stroke="#2D2D2D" width="272.88135" x="18.89829" y="19.54237"/>
  <rect fill="#FFEBA2" height="11.86441" id="c6c9df40ed514b2d85f7136389ad1709-oa-2" stroke="#2D2D2D" width="311.01695" x="24.83049" y="105.98305"/>
  <rect fill="#FFEBA2" height="16.94915" id="c6c9df40ed514b2d85f7136389ad1709-oa-3" stroke="#2D2D2D" width="307.62712" x="25.67795" y="190.72881"/>
  <rect fill="#FFEBA2" height="13.55932" id="c6c9df40ed514b2d85f7136389ad1709-oa-4" stroke="#2D2D2D" width="112.71186" x="79.06778" y="36.49152"/>
  <rect fill="#FFEBA2" height="22.0339" id="c6c9df40ed514b2d85f7136389ad1709-oa-5" stroke="#2D2D2D" width="327.11864" x="70.59321" y="44.11864"/>
  <rect fill="#FFEBA2" height="11.86441" id="c6c9df40ed514b2d85f7136389ad1709-oa-6" stroke="#2D2D2D" width="38.13559" x="70.59321" y="68.69491"/>
  <rect fill="#FFEBA2" height="16.10169" id="c6c9df40ed514b2d85f7136389ad1709-oa-7" stroke="#2D2D2D" width="191.52542" x="79.06778" y="85.64407"/>
  <rect fill="#FFEBA2" height="14.40678" id="c6c9df40ed514b2d85f7136389ad1709-oa-8" stroke="#2D2D2D" width="82.20339" x="82.45761" y="122.9322"/>
  <rect fill="#FFEBA2" height="9.32203" id="c6c9df40ed514b2d85f7136389ad1709-oa-9" stroke="#2D2D2D" width="196.61017" x="68.89829" y="141.57627"/>
  <rect fill="#FFEBA2" height="17.79661" id="c6c9df40ed514b2d85f7136389ad1709-oa-10" stroke="#2D2D2D" width="199.15254" x="77.37287" y="160.22034"/>
  <rect fill="#FFEBA2" height="13.55932" id="c6c9df40ed514b2d85f7136389ad1709-oa-11" stroke="#2D2D2D" width="68.64407" x="81.61016" y="213.61017"/>
  <rect fill="#FFEBA2" height="6.77966" id="c6c9df40ed514b2d85f7136389ad1709-oa-12" stroke="#2D2D2D" width="77.9661" x="79.06778" y="179.71186"/>
  <rect fill="#FFEBA2" height="10.16949" id="c6c9df40ed514b2d85f7136389ad1709-oa-13" stroke="#2D2D2D" width="189.83051" x="73.13558" y="232.25423"/>
  <rect fill="#FFEBA2" height="10.16949" id="c6c9df40ed514b2d85f7136389ad1709-oa-14" stroke="#2D2D2D" width="150" x="73.13558" y="249.20339"/>
  <rect fill="#FFEBA2" height="10.16949" id="c6c9df40ed514b2d85f7136389ad1709-oa-15" stroke="#2D2D2D" width="55.9322" x="80.7627" y="266.15254"/>
 </g>
</svg>