<svg height="440" width="554" xmlns="http://www.w3.org/2000/svg">
 <!-- Created with Image Occlusion Enhanced -->
 <g>
  <title>Labels</title>
 </g>
 <g>
  <title>Masks</title>
  <rect fill="#FFEBA2" height="38.38384" id="c8440ad3c80a4cafa47aa20058d06b64-oa-1" stroke="#2D2D2D" width="170.70707" x="124.78785" y="67.0707"/>
  <rect fill="#FFEBA2" height="28.28283" id="c8440ad3c80a4cafa47aa20058d06b64-oa-2" stroke="#2D2D2D" width="16.16162" x="148.02017" y="127.67676"/>
  <rect fill="#FFEBA2" height="32.32323" id="c8440ad3c80a4cafa47aa20058d06b64-oa-3" stroke="#2D2D2D" width="17.17172" x="522.76764" y="108.48484"/>
  <rect fill="#FFEBA2" height="29.29293" id="c8440ad3c80a4cafa47aa20058d06b64-oa-4" stroke="#2D2D2D" width="64.64646" x="384.3838" y="325.65655"/>
  <rect fill="#FFEBA2" height="40.40404" id="c8440ad3c80a4cafa47aa20058d06b64-oa-5" stroke="#2D2D2D" width="57.57576" x="393.47471" y="274.1414"/>
  <rect fill="#FFEBA2" height="29.29293" id="c8440ad3c80a4cafa47aa20058d06b64-oa-6" stroke="#2D2D2D" width="49.49495" x="308.62623" y="374.1414"/>
  <rect fill="#FFEBA2" height="35.35353" id="c8440ad3c80a4cafa47aa20058d06b64-oa-7" stroke="#2D2D2D" width="63.63636" x="253.07067" y="386.26261"/>
  <rect fill="#FFEBA2" height="26.26263" id="c8440ad3c80a4cafa47aa20058d06b64-oa-8" stroke="#2D2D2D" width="46.46465" x="152.06057" y="365.05049"/>
  <rect fill="#FFEBA2" height="22.22222" id="c8440ad3c80a4cafa47aa20058d06b64-oa-9" stroke="#2D2D2D" width="58.58586" x="125.79795" y="314.54544"/>
  <rect fill="#FFEBA2" height="40.40404" id="c8440ad3c80a4cafa47aa20058d06b64-oa-10" stroke="#2D2D2D" width="32.32323" x="109.63633" y="259.99999"/>
  <rect fill="#FFEBA2" height="44.44444" id="c8440ad3c80a4cafa47aa20058d06b64-oa-11" stroke="#2D2D2D" width="56.56566" x="141.95956" y="194.34343"/>
  <rect fill="#FFEBA2" height="30.30303" id="c8440ad3c80a4cafa47aa20058d06b64-oa-12" stroke="#2D2D2D" width="28.28283" x="225.79795" y="219.59595"/>
  <rect fill="#FFEBA2" height="29.29293" id="c8440ad3c80a4cafa47aa20058d06b64-oa-13" stroke="#2D2D2D" width="32.32323" x="202.56562" y="328.68686"/>
  <rect fill="#FFEBA2" height="29.29293" id="c8440ad3c80a4cafa47aa20058d06b64-oa-14" stroke="#2D2D2D" width="28.28283" x="242.96966" y="350.90908"/>
  <rect fill="#FFEBA2" height="22.22222" id="c8440ad3c80a4cafa47aa20058d06b64-oa-15" stroke="#2D2D2D" width="51.51515" x="330.84845" y="345.85857"/>
  <rect fill="#FFEBA2" height="43.43434" id="c8440ad3c80a4cafa47aa20058d06b64-oa-16" stroke="#2D2D2D" width="43.43434" x="343.97976" y="248.88888"/>
  <rect fill="#FFEBA2" height="34.34343" id="c8440ad3c80a4cafa47aa20058d06b64-oa-17" stroke="#2D2D2D" width="52.52525" x="313.67673" y="217.57575"/>
  <rect fill="#FFEBA2" height="24.24242" id="c8440ad3c80a4cafa47aa20058d06b64-oa-18" stroke="#2D2D2D" width="108.08081" x="287.41411" y="182.22221"/>
 </g>
</svg>