<svg height="1200" width="887" xmlns="http://www.w3.org/2000/svg">
 <!-- Created with Image Occlusion Enhanced -->
 <g>
  <title>Labels</title>
 </g>
 <g>
  <title>Masks</title>
  <rect fill="#FFEBA2" height="33.55263" id="cde37c05ecd44f3c99f96cf1f87ad59f-oa-1" stroke="#2D2D2D" width="325.6579" x="198.52632" y="288.15789"/>
  <rect fill="#FFEBA2" height="15.78947" id="cde37c05ecd44f3c99f96cf1f87ad59f-oa-2" stroke="#2D2D2D" width="376.97369" x="137.34211" y="333.55263"/>
  <rect fill="#FFEBA2" height="21.71053" id="cde37c05ecd44f3c99f96cf1f87ad59f-oa-3" stroke="#2D2D2D" width="363.1579" x="147.21053" y="355.26316"/>
  <rect fill="#FFEBA2" height="9.86842" id="cde37c05ecd44f3c99f96cf1f87ad59f-oa-4" stroke="#2D2D2D" width="258.55263" x="255.76317" y="382.89474"/>
  <rect fill="#FFEBA2" height="49.34211" id="cde37c05ecd44f3c99f96cf1f87ad59f-oa-5" stroke="#2D2D2D" width="288.1579" x="222.21053" y="398.68421"/>
  <rect fill="#FFEBA2" height="39.47368" id="cde37c05ecd44f3c99f96cf1f87ad59f-oa-6" stroke="#2D2D2D" width="412.5" x="93.92106" y="455.92105"/>
  <rect fill="#FFEBA2" height="29.60526" id="cde37c05ecd44f3c99f96cf1f87ad59f-oa-7" stroke="#2D2D2D" width="335.52632" x="172.86843" y="517.10526"/>
  <rect fill="#FFEBA2" height="19.73684" id="cde37c05ecd44f3c99f96cf1f87ad59f-oa-8" stroke="#2D2D2D" width="353.28948" x="153.13159" y="558.55263"/>
  <rect fill="#FFEBA2" height="13.81579" id="cde37c05ecd44f3c99f96cf1f87ad59f-oa-9" stroke="#2D2D2D" width="430.26316" x="74.18422" y="586.18421"/>
  <rect fill="#FFEBA2" height="17.76316" id="cde37c05ecd44f3c99f96cf1f87ad59f-oa-10" stroke="#2D2D2D" width="396.71053" x="109.71053" y="605.92105"/>
  <rect fill="#FFEBA2" height="19.73684" id="cde37c05ecd44f3c99f96cf1f87ad59f-oa-11" stroke="#2D2D2D" width="248.68421" x="257.73685" y="629.60526"/>
  <rect fill="#FFEBA2" height="86.84211" id="cde37c05ecd44f3c99f96cf1f87ad59f-oa-12" stroke="#2D2D2D" width="333.55263" x="184.71053" y="686.84211"/>
  <rect fill="#FFEBA2" height="39.47368" id="cde37c05ecd44f3c99f96cf1f87ad59f-oa-13" stroke="#2D2D2D" width="307.89474" x="208.39474" y="779.60526"/>
  <rect fill="#FFEBA2" height="35.52632" id="cde37c05ecd44f3c99f96cf1f87ad59f-oa-14" stroke="#2D2D2D" width="278.28948" x="228.13159" y="817.10526"/>
  <rect fill="#FFEBA2" height="61.18421" id="cde37c05ecd44f3c99f96cf1f87ad59f-oa-15" stroke="#2D2D2D" width="450" x="56.42106" y="848.68421"/>
 </g>
</svg>