<svg height="615" width="844.0000000000001" xmlns="http://www.w3.org/2000/svg">
 <!-- Created with Image Occlusion Enhanced -->
 <g>
  <title>Labels</title>
 </g>
 <g>
  <title>Masks</title>
  <rect fill="#FFEBA2" height="59.25926" id="d73851f9dc214c45897a833b494ec6cd-oa-1" stroke="#2D2D2D" width="182.71605" x="262.17281" y="7.22223"/>
  <rect fill="#FFEBA2" height="19.75309" id="d73851f9dc214c45897a833b494ec6cd-oa-2" stroke="#2D2D2D" width="72.83951" x="499.20985" y="46.7284"/>
  <rect fill="#FFEBA2" height="17.28395" id="d73851f9dc214c45897a833b494ec6cd-oa-3" stroke="#2D2D2D" width="72.83951" x="526.37034" y="80.06174"/>
  <rect fill="#FFEBA2" height="24.69136" id="d73851f9dc214c45897a833b494ec6cd-oa-4" stroke="#2D2D2D" width="59.25926" x="573.28393" y="102.28396"/>
  <rect fill="#FFEBA2" height="34.5679" id="d73851f9dc214c45897a833b494ec6cd-oa-5" stroke="#2D2D2D" width="134.5679" x="631.30862" y="133.14816"/>
  <rect fill="#FFEBA2" height="22.22222" id="d73851f9dc214c45897a833b494ec6cd-oa-6" stroke="#2D2D2D" width="97.53087" x="676.98763" y="408.4568"/>
  <rect fill="#FFEBA2" height="17.28395" id="d73851f9dc214c45897a833b494ec6cd-oa-7" stroke="#2D2D2D" width="69.1358" x="644.88886" y="470.1852"/>
  <rect fill="#FFEBA2" height="64.19753" id="d73851f9dc214c45897a833b494ec6cd-oa-8" stroke="#2D2D2D" width="124.69136" x="638.71602" y="545.49384"/>
  <rect fill="#FFEBA2" height="14.81481" id="d73851f9dc214c45897a833b494ec6cd-oa-9" stroke="#2D2D2D" width="104.93827" x="62.17281" y="445.49384"/>
  <rect fill="#FFEBA2" height="19.75309" id="d73851f9dc214c45897a833b494ec6cd-oa-10" stroke="#2D2D2D" width="111.11111" x="86.86417" y="482.53088"/>
  <rect fill="#FFEBA2" height="24.69136" id="d73851f9dc214c45897a833b494ec6cd-oa-11" stroke="#2D2D2D" width="90.12346" x="94.27157" y="518.33335"/>
  <rect fill="#FFEBA2" height="32.09877" id="d73851f9dc214c45897a833b494ec6cd-oa-12" stroke="#2D2D2D" width="82.71605" x="111.55552" y="560.30866"/>
  <rect fill="#FFEBA2" height="43.20988" id="d73851f9dc214c45897a833b494ec6cd-oa-13" stroke="#2D2D2D" width="138.27161" x="58.4691" y="381.29631"/>
  <rect fill="#FFEBA2" height="46.91358" id="d73851f9dc214c45897a833b494ec6cd-oa-14" stroke="#2D2D2D" width="123.45679" x="102.91355" y="308.4568"/>
  <rect fill="#FFEBA2" height="13.58025" id="d73851f9dc214c45897a833b494ec6cd-oa-15" stroke="#2D2D2D" width="123.45679" x="101.67898" y="272.65433"/>
  <rect fill="#FFEBA2" height="18.51852" id="d73851f9dc214c45897a833b494ec6cd-oa-16" stroke="#2D2D2D" width="129.62963" x="122.66664" y="234.38273"/>
  <rect fill="#FFEBA2" height="40.74074" id="d73851f9dc214c45897a833b494ec6cd-oa-17" stroke="#2D2D2D" width="153.08642" x="114.02466" y="173.8889"/>
  <rect fill="#FFEBA2" height="16.04938" id="d73851f9dc214c45897a833b494ec6cd-oa-18" stroke="#2D2D2D" width="186.41976" x="96.74071" y="133.14816"/>
  <rect fill="#FFEBA2" height="41.97531" id="d73851f9dc214c45897a833b494ec6cd-oa-19" stroke="#2D2D2D" width="198.76543" x="111.55552" y="86.23458"/>
  <rect fill="#FFEBA2" height="18.51852" id="d73851f9dc214c45897a833b494ec6cd-oa-20" stroke="#2D2D2D" width="95.06173" x="316.4938" y="72.65433"/>
 </g>
</svg>