<svg height="328" width="554" xmlns="http://www.w3.org/2000/svg">
 <!-- Created with Image Occlusion Enhanced -->
 <g>
  <title>Labels</title>
 </g>
 <g>
  <title>Masks</title>
  <rect fill="#FFEBA2" height="29.29293" id="d7a1fea5c7914025bc48bc9d86bd5934-oa-1" stroke="#2D2D2D" width="25.25253" x="418.72724" y="11.39394"/>
  <rect fill="#FFEBA2" height="17.17172" id="d7a1fea5c7914025bc48bc9d86bd5934-oa-2" stroke="#2D2D2D" width="142.42424" x="44.98987" y="103.31313"/>
  <rect fill="#FFEBA2" height="19.19192" id="d7a1fea5c7914025bc48bc9d86bd5934-oa-3" stroke="#2D2D2D" width="66.66667" x="45.99997" y="158.86869"/>
  <rect fill="#FFEBA2" height="20.20202" id="d7a1fea5c7914025bc48bc9d86bd5934-oa-4" stroke="#2D2D2D" width="111.11111" x="180.3434" y="155.83838"/>
  <rect fill="#FFEBA2" height="13.13131" id="d7a1fea5c7914025bc48bc9d86bd5934-oa-5" stroke="#2D2D2D" width="54.54545" x="291.45451" y="91.19192"/>
  <rect fill="#FFEBA2" height="25.25253" id="d7a1fea5c7914025bc48bc9d86bd5934-oa-6" stroke="#2D2D2D" width="87.87879" x="298.52522" y="43.71717"/>
  <rect fill="#FFEBA2" height="20.20202" id="d7a1fea5c7914025bc48bc9d86bd5934-oa-7" stroke="#2D2D2D" width="107.07071" x="404.58582" y="67.95959"/>
  <rect fill="#FFEBA2" height="11.11111" id="d7a1fea5c7914025bc48bc9d86bd5934-oa-8" stroke="#2D2D2D" width="47.47475" x="418.72724" y="91.19192"/>
  <rect fill="#FFEBA2" height="17.17172" id="d7a1fea5c7914025bc48bc9d86bd5934-oa-9" stroke="#2D2D2D" width="50.50505" x="415.69694" y="107.35353"/>
  <rect fill="#FFEBA2" height="16.16162" id="d7a1fea5c7914025bc48bc9d86bd5934-oa-10" stroke="#2D2D2D" width="61.61616" x="423.77774" y="137.65656"/>
  <rect fill="#FFEBA2" height="37.37374" id="d7a1fea5c7914025bc48bc9d86bd5934-oa-11" stroke="#2D2D2D" width="87.87879" x="296.50502" y="165.93939"/>
  <rect fill="#FFEBA2" height="22.22222" id="d7a1fea5c7914025bc48bc9d86bd5934-oa-12" stroke="#2D2D2D" width="91.91919" x="289.43431" y="242.70707"/>
  <rect fill="#FFEBA2" height="11.11111" id="d7a1fea5c7914025bc48bc9d86bd5934-oa-13" stroke="#2D2D2D" width="66.66667" x="427.81815" y="280.08081"/>
  <rect fill="#FFEBA2" height="16.16162" id="d7a1fea5c7914025bc48bc9d86bd5934-oa-14" stroke="#2D2D2D" width="98.9899" x="360.14138" y="309.37373"/>
  <rect fill="#FFEBA2" height="28.28283" id="d7a1fea5c7914025bc48bc9d86bd5934-oa-15" stroke="#2D2D2D" width="32.32323" x="69.23229" y="68.9697"/>
 </g>
</svg>