<svg height="1200" width="846" xmlns="http://www.w3.org/2000/svg">
 <!-- Created with Image Occlusion Enhanced -->
 <g>
  <title>Labels</title>
 </g>
 <g>
  <title>Masks</title>
  <rect fill="#FFEBA2" height="119.5122" id="e8d6f507ba464dfba6833c941ec190c0-oa-1" stroke="#2D2D2D" width="121.95122" x="27.87803" y="207.31706"/>
  <rect fill="#FFEBA2" height="82.92683" id="e8d6f507ba464dfba6833c941ec190c0-oa-2" stroke="#2D2D2D" width="121.95122" x="59.58535" y="426.82926"/>
  <rect fill="#FFEBA2" height="117.07318" id="e8d6f507ba464dfba6833c941ec190c0-oa-3" stroke="#2D2D2D" width="192.68293" x="35.19511" y="331.70731"/>
  <rect fill="#FFEBA2" height="139.0244" id="e8d6f507ba464dfba6833c941ec190c0-oa-4" stroke="#2D2D2D" width="165.85367" x="579.09757" y="112.1951"/>
  <rect fill="#FFEBA2" height="109.7561" id="e8d6f507ba464dfba6833c941ec190c0-oa-5" stroke="#2D2D2D" width="153.65854" x="601.04879" y="275.60974"/>
  <rect fill="#FFEBA2" height="97.56098" id="e8d6f507ba464dfba6833c941ec190c0-oa-6" stroke="#2D2D2D" width="160.97562" x="591.29269" y="439.02438"/>
  <rect fill="#FFEBA2" height="58.53659" id="e8d6f507ba464dfba6833c941ec190c0-oa-7" stroke="#2D2D2D" width="141.46342" x="525.43903" y="592.68293"/>
  <rect fill="#FFEBA2" height="60.97561" id="e8d6f507ba464dfba6833c941ec190c0-oa-8" stroke="#2D2D2D" width="100" x="530.31708" y="678.04878"/>
  <rect fill="#FFEBA2" height="75.60976" id="e8d6f507ba464dfba6833c941ec190c0-oa-9" stroke="#2D2D2D" width="95.12196" x="86.41462" y="641.46342"/>
  <rect fill="#FFEBA2" height="53.65854" id="e8d6f507ba464dfba6833c941ec190c0-oa-10" stroke="#2D2D2D" width="168.29269" x="40.07315" y="785.36586"/>
  <rect fill="#FFEBA2" height="78.04878" id="e8d6f507ba464dfba6833c941ec190c0-oa-11" stroke="#2D2D2D" width="190.24391" x="22.99998" y="851.21952"/>
  <rect fill="#FFEBA2" height="21.95122" id="e8d6f507ba464dfba6833c941ec190c0-oa-12" stroke="#2D2D2D" width="109.7561" x="88.85364" y="953.65855"/>
  <rect fill="#FFEBA2" height="87.80488" id="e8d6f507ba464dfba6833c941ec190c0-oa-13" stroke="#2D2D2D" width="139.0244" x="562.0244" y="792.68293"/>
  <rect fill="#FFEBA2" height="80.48781" id="e8d6f507ba464dfba6833c941ec190c0-oa-14" stroke="#2D2D2D" width="114.63415" x="571.78049" y="934.14636"/>
  <rect fill="#FFEBA2" height="41.46342" id="e8d6f507ba464dfba6833c941ec190c0-oa-15" stroke="#2D2D2D" width="87.80488" x="576.65854" y="1056.09758"/>
 </g>
</svg>