<svg height="578" width="491.00000000000006" xmlns="http://www.w3.org/2000/svg">
 <!-- Created with Image Occlusion Enhanced -->
 <g>
  <title>Labels</title>
 </g>
 <g>
  <title>Masks</title>
  <rect fill="#FFEBA2" height="15.18987" id="e9886ec83b3c40ec8279b59631d2f3c4-oa-1" stroke="#2D2D2D" width="165.82279" x="21.6582" y="-2.05063"/>
  <rect fill="#FFEBA2" height="26.58228" id="e9886ec83b3c40ec8279b59631d2f3c4-oa-2" stroke="#2D2D2D" width="379.74684" x="95.07592" y="22.00001"/>
  <rect fill="#FFEBA2" height="17.72152" id="e9886ec83b3c40ec8279b59631d2f3c4-oa-3" stroke="#2D2D2D" width="329.11393" x="90.01263" y="57.44304"/>
  <rect fill="#FFEBA2" height="30.37975" id="e9886ec83b3c40ec8279b59631d2f3c4-oa-4" stroke="#2D2D2D" width="265.82279" x="84.94934" y="77.69621"/>
  <rect fill="#FFEBA2" height="13.92405" id="e9886ec83b3c40ec8279b59631d2f3c4-oa-5" stroke="#2D2D2D" width="193.67089" x="76.08858" y="110.6076"/>
  <rect fill="#FFEBA2" height="12.65823" id="e9886ec83b3c40ec8279b59631d2f3c4-oa-6" stroke="#2D2D2D" width="215.18988" x="82.41769" y="130.86077"/>
  <rect fill="#FFEBA2" height="11.39241" id="e9886ec83b3c40ec8279b59631d2f3c4-oa-7" stroke="#2D2D2D" width="201.26582" x="86.21516" y="152.37975"/>
  <rect fill="#FFEBA2" height="94.93671" id="e9886ec83b3c40ec8279b59631d2f3c4-oa-8" stroke="#2D2D2D" width="88.6076" x="12.79744" y="176.43039"/>
  <rect fill="#FFEBA2" height="72.1519" id="e9886ec83b3c40ec8279b59631d2f3c4-oa-9" stroke="#2D2D2D" width="83.5443" x="29.25313" y="271.3671"/>
  <rect fill="#FFEBA2" height="77.21519" id="e9886ec83b3c40ec8279b59631d2f3c4-oa-10" stroke="#2D2D2D" width="83.5443" x="35.58225" y="354.9114"/>
  <rect fill="#FFEBA2" height="22.78481" id="e9886ec83b3c40ec8279b59631d2f3c4-oa-11" stroke="#2D2D2D" width="77.21519" x="16.59491" y="452.37976"/>
  <rect fill="#FFEBA2" height="29.11392" id="e9886ec83b3c40ec8279b59631d2f3c4-oa-12" stroke="#2D2D2D" width="94.93671" x="362.16453" y="252.37976"/>
  <rect fill="#FFEBA2" height="44.3038" id="e9886ec83b3c40ec8279b59631d2f3c4-oa-13" stroke="#2D2D2D" width="69.62025" x="364.69618" y="284.02533"/>
  <rect fill="#FFEBA2" height="98.73418" id="e9886ec83b3c40ec8279b59631d2f3c4-oa-14" stroke="#2D2D2D" width="74.68355" x="355.83542" y="333.39241"/>
  <rect fill="#FFEBA2" height="74.68355" id="e9886ec83b3c40ec8279b59631d2f3c4-oa-15" stroke="#2D2D2D" width="70.88608" x="382.4177" y="458.70887"/>
 </g>
</svg>