<svg height="1057" width="868" xmlns="http://www.w3.org/2000/svg">
 <!-- Created with Image Occlusion Enhanced -->
 <g>
  <title>Labels</title>
 </g>
 <g>
  <title>Masks</title>
  <rect fill="#FFEBA2" height="197.67442" id="ecf1818612d24de8a238b13f52411a4b-oa-1" stroke="#2D2D2D" width="109.30233" x="52.93026" y="54.62786"/>
  <rect fill="#FFEBA2" height="174.41861" id="ecf1818612d24de8a238b13f52411a4b-oa-2" stroke="#2D2D2D" width="104.65117" x="180.83724" y="73.23251"/>
  <rect fill="#FFEBA2" height="190.69768" id="ecf1818612d24de8a238b13f52411a4b-oa-3" stroke="#2D2D2D" width="244.18605" x="301.76747" y="47.65112"/>
  <rect fill="#FFEBA2" height="55.81395" id="ecf1818612d24de8a238b13f52411a4b-oa-4" stroke="#2D2D2D" width="120.93024" x="297.11631" y="231.37205"/>
  <rect fill="#FFEBA2" height="60.46512" id="ecf1818612d24de8a238b13f52411a4b-oa-5" stroke="#2D2D2D" width="181.39535" x="225.02328" y="294.16275"/>
  <rect fill="#FFEBA2" height="79.06977" id="ecf1818612d24de8a238b13f52411a4b-oa-6" stroke="#2D2D2D" width="118.60465" x="420.37213" y="273.23252"/>
  <rect fill="#FFEBA2" height="62.7907" id="ecf1818612d24de8a238b13f52411a4b-oa-7" stroke="#2D2D2D" width="155.81396" x="662.2326" y="24.3953"/>
  <rect fill="#FFEBA2" height="48.83721" id="ecf1818612d24de8a238b13f52411a4b-oa-8" stroke="#2D2D2D" width="153.48838" x="652.93027" y="252.30228"/>
  <rect fill="#FFEBA2" height="86.04651" id="ecf1818612d24de8a238b13f52411a4b-oa-9" stroke="#2D2D2D" width="169.76745" x="664.55818" y="415.09299"/>
  <rect fill="#FFEBA2" height="60.46512" id="ecf1818612d24de8a238b13f52411a4b-oa-10" stroke="#2D2D2D" width="104.65117" x="411.0698" y="422.06973"/>
  <rect fill="#FFEBA2" height="65.11628" id="ecf1818612d24de8a238b13f52411a4b-oa-11" stroke="#2D2D2D" width="162.7907" x="541.30236" y="529.04648"/>
  <rect fill="#FFEBA2" height="106.97675" id="ecf1818612d24de8a238b13f52411a4b-oa-12" stroke="#2D2D2D" width="197.67442" x="518.04655" y="645.32555"/>
  <rect fill="#FFEBA2" height="244.18605" id="ecf1818612d24de8a238b13f52411a4b-oa-13" stroke="#2D2D2D" width="455.81397" x="348.2791" y="759.27904"/>
  <rect fill="#FFEBA2" height="179.06977" id="ecf1818612d24de8a238b13f52411a4b-oa-14" stroke="#2D2D2D" width="179.06977" x="204.09305" y="826.7209"/>
  <rect fill="#FFEBA2" height="186.04652" id="ecf1818612d24de8a238b13f52411a4b-oa-15" stroke="#2D2D2D" width="172.09303" x="32.00002" y="829.04649"/>
 </g>
</svg>