<svg height="435" width="630" xmlns="http://www.w3.org/2000/svg">
 <!-- Created with Image Occlusion Enhanced -->
 <g>
  <title>Labels</title>
 </g>
 <g>
  <title>Masks</title>
  <rect fill="#FFEBA2" height="28.94737" id="f089aa82e2e141f08a7d5b548033e62c-oa-1" stroke="#2D2D2D" width="125.4386" x="38.42103" y="16.75439"/>
  <rect fill="#FFEBA2" height="11.40351" id="f089aa82e2e141f08a7d5b548033e62c-oa-2" stroke="#2D2D2D" width="107.01755" x="58.59647" y="54.47369"/>
  <rect fill="#FFEBA2" height="21.92982" id="f089aa82e2e141f08a7d5b548033e62c-oa-3" stroke="#2D2D2D" width="114.91228" x="50.70174" y="67.63159"/>
  <rect fill="#FFEBA2" height="21.92982" id="f089aa82e2e141f08a7d5b548033e62c-oa-4" stroke="#2D2D2D" width="130.70176" x="36.66665" y="86.92983"/>
  <rect fill="#FFEBA2" height="21.05263" id="f089aa82e2e141f08a7d5b548033e62c-oa-5" stroke="#2D2D2D" width="128.07018" x="49.82454" y="110.61404"/>
  <rect fill="#FFEBA2" height="31.57895" id="f089aa82e2e141f08a7d5b548033e62c-oa-6" stroke="#2D2D2D" width="107.89474" x="60.35086" y="136.92983"/>
  <rect fill="#FFEBA2" height="21.05263" id="f089aa82e2e141f08a7d5b548033e62c-oa-7" stroke="#2D2D2D" width="124.56141" x="37.54384" y="196.57896"/>
  <rect fill="#FFEBA2" height="14.03509" id="f089aa82e2e141f08a7d5b548033e62c-oa-8" stroke="#2D2D2D" width="95.61404" x="65.61402" y="229.91229"/>
  <rect fill="#FFEBA2" height="11.40351" id="f089aa82e2e141f08a7d5b548033e62c-oa-9" stroke="#2D2D2D" width="97.36842" x="65.61402" y="251.84211"/>
  <rect fill="#FFEBA2" height="14.03509" id="f089aa82e2e141f08a7d5b548033e62c-oa-10" stroke="#2D2D2D" width="139.47369" x="22.63156" y="271.14036"/>
  <rect fill="#FFEBA2" height="23.68421" id="f089aa82e2e141f08a7d5b548033e62c-oa-11" stroke="#2D2D2D" width="124.56141" x="39.29823" y="321.14036"/>
  <rect fill="#FFEBA2" height="8.77193" id="f089aa82e2e141f08a7d5b548033e62c-oa-12" stroke="#2D2D2D" width="73.68421" x="89.29823" y="355.35089"/>
  <rect fill="#FFEBA2" height="13.15789" id="f089aa82e2e141f08a7d5b548033e62c-oa-13" stroke="#2D2D2D" width="67.54386" x="97.19296" y="377.28071"/>
  <rect fill="#FFEBA2" height="18.42105" id="f089aa82e2e141f08a7d5b548033e62c-oa-14" stroke="#2D2D2D" width="121.92983" x="48.07016" y="391.3158"/>
  <rect fill="#FFEBA2" height="17.54386" id="f089aa82e2e141f08a7d5b548033e62c-oa-15" stroke="#2D2D2D" width="130.70176" x="464.73683" y="283.42106"/>
  <rect fill="#FFEBA2" height="14.03509" id="f089aa82e2e141f08a7d5b548033e62c-oa-16" stroke="#2D2D2D" width="121.92983" x="462.98244" y="310.61404"/>
  <rect fill="#FFEBA2" height="14.91228" id="f089aa82e2e141f08a7d5b548033e62c-oa-17" stroke="#2D2D2D" width="107.01755" x="469.99999" y="336.92983"/>
  <rect fill="#FFEBA2" height="12.2807" id="f089aa82e2e141f08a7d5b548033e62c-oa-18" stroke="#2D2D2D" width="116.66667" x="470.87718" y="362.36843"/>
  <rect fill="#FFEBA2" height="14.03509" id="f089aa82e2e141f08a7d5b548033e62c-oa-19" stroke="#2D2D2D" width="135.96491" x="470.87718" y="396.57896"/>
  <rect fill="#FFEBA2" height="36.84211" id="f089aa82e2e141f08a7d5b548033e62c-oa-20" stroke="#2D2D2D" width="128.94737" x="473.50876" y="199.21053"/>
  <rect fill="#FFEBA2" height="24.5614" id="f089aa82e2e141f08a7d5b548033e62c-oa-21" stroke="#2D2D2D" width="73.68421" x="487.54385" y="157.98246"/>
  <rect fill="#FFEBA2" height="18.42105" id="f089aa82e2e141f08a7d5b548033e62c-oa-22" stroke="#2D2D2D" width="112.2807" x="483.15788" y="129.03509"/>
  <rect fill="#FFEBA2" height="36.84211" id="f089aa82e2e141f08a7d5b548033e62c-oa-23" stroke="#2D2D2D" width="121.92983" x="484.03507" y="83.42106"/>
  <rect fill="#FFEBA2" height="36.84211" id="f089aa82e2e141f08a7d5b548033e62c-oa-24" stroke="#2D2D2D" width="121.05263" x="469.12279" y="16.75439"/>
 </g>
</svg>