<svg height="419" width="564.0000000000001" xmlns="http://www.w3.org/2000/svg">
 <!-- Created with Image Occlusion Enhanced -->
 <g>
  <title>Labels</title>
 </g>
 <g>
  <title>Masks</title>
  <rect fill="#FFEBA2" height="35.05155" id="f1d0cf19672d4758ac7261201f361441-oa-1" stroke="#2D2D2D" width="87.62887" x="-1.11343" y="106.77321"/>
  <rect fill="#FFEBA2" height="31.95876" id="f1d0cf19672d4758ac7261201f361441-oa-2" stroke="#2D2D2D" width="177.31959" x="100.94842" y="105.74228"/>
  <rect fill="#FFEBA2" height="50.51546" id="f1d0cf19672d4758ac7261201f361441-oa-3" stroke="#2D2D2D" width="164.94846" x="104.04121" y="157.28867"/>
  <rect fill="#FFEBA2" height="37.1134" id="f1d0cf19672d4758ac7261201f361441-oa-4" stroke="#2D2D2D" width="97.93815" x="-2.14436" y="163.47424"/>
  <rect fill="#FFEBA2" height="22.68041" id="f1d0cf19672d4758ac7261201f361441-oa-5" stroke="#2D2D2D" width="84.53608" x="-1.11343" y="222.23712"/>
  <rect fill="#FFEBA2" height="39.17526" id="f1d0cf19672d4758ac7261201f361441-oa-6" stroke="#2D2D2D" width="192.78351" x="105.07214" y="219.14434"/>
  <rect fill="#FFEBA2" height="17.52577" id="f1d0cf19672d4758ac7261201f361441-oa-7" stroke="#2D2D2D" width="176.28866" x="97.85564" y="269.65981"/>
  <rect fill="#FFEBA2" height="60.82474" id="f1d0cf19672d4758ac7261201f361441-oa-8" stroke="#2D2D2D" width="87.62887" x="4.04121" y="265.53609"/>
  <rect fill="#FFEBA2" height="52.57732" id="f1d0cf19672d4758ac7261201f361441-oa-9" stroke="#2D2D2D" width="78.35052" x="-2.14436" y="331.51548"/>
  <rect fill="#FFEBA2" height="37.1134" id="f1d0cf19672d4758ac7261201f361441-oa-10" stroke="#2D2D2D" width="161.85567" x="100.94842" y="337.70104"/>
  <rect fill="#FFEBA2" height="42.26804" id="f1d0cf19672d4758ac7261201f361441-oa-11" stroke="#2D2D2D" width="215.46392" x="304.04121" y="337.70104"/>
  <rect fill="#FFEBA2" height="55.6701" id="f1d0cf19672d4758ac7261201f361441-oa-12" stroke="#2D2D2D" width="216.49485" x="303.01028" y="268.62888"/>
  <rect fill="#FFEBA2" height="39.17526" id="f1d0cf19672d4758ac7261201f361441-oa-13" stroke="#2D2D2D" width="84.53608" x="299.9175" y="221.2062"/>
  <rect fill="#FFEBA2" height="47.42268" id="f1d0cf19672d4758ac7261201f361441-oa-14" stroke="#2D2D2D" width="206.18557" x="307.13399" y="167.59795"/>
  <rect fill="#FFEBA2" height="50.51546" id="f1d0cf19672d4758ac7261201f361441-oa-15" stroke="#2D2D2D" width="198.96908" x="308.16492" y="107.80413"/>
 </g>
</svg>